<svg width="93" height="115" viewBox="0 0 93 115" fill="none" xmlns="http://www.w3.org/2000/svg">
<g opacity="0.1">
<path d="M92.6989 98.4049L73.3363 65.1538C80.4993 58.2683 84.9591 48.6335 84.9591 37.9839C84.9591 17.1092 67.8302 0.126221 46.7756 0.126221C25.721 0.126221 8.59209 17.1092 8.59209 37.9839C8.59209 48.6335 13.0519 58.2683 20.2152 65.154L0.852294 98.4049C0.39791 99.1854 0.462597 100.161 1.01648 100.875C1.57014 101.59 2.50384 101.903 3.38184 101.669L18.308 97.6816L22.2885 112.491C22.5226 113.362 23.2629 114.007 24.1642 114.126C24.2631 114.139 24.3617 114.145 24.4596 114.145C25.2543 114.145 25.9993 113.726 26.404 113.032L46.7756 78.0477L67.1472 113.031C67.5519 113.726 68.2972 114.145 69.0916 114.145C69.1896 114.145 69.2882 114.138 69.387 114.125C70.2881 114.007 71.0287 113.362 71.2627 112.491L75.2432 97.6813L90.1696 101.668C91.0478 101.903 91.9811 101.59 92.535 100.875C93.0889 100.161 93.1535 99.1854 92.6989 98.4049ZM13.0843 37.9839C13.0843 19.565 28.1982 4.58007 46.7756 4.58007C65.353 4.58007 80.4669 19.565 80.4669 37.9839C80.4669 56.4028 65.353 71.3878 46.7756 71.3878C28.1982 71.3878 13.0843 56.4028 13.0843 37.9839ZM25.2302 106.139L22.0689 94.377C21.9152 93.8054 21.5383 93.3177 21.0215 93.0219C20.5047 92.726 19.8906 92.6463 19.314 92.8001L7.45917 95.9668L23.6806 68.1104C29.151 72.2427 35.7745 74.9471 42.982 75.6553L25.2302 106.139ZM74.2372 92.7999C73.6606 92.646 73.0465 92.7258 72.5297 93.0217C72.0129 93.3177 71.636 93.8052 71.4824 94.3768L68.321 106.139L50.5693 75.6548C57.7767 74.9467 64.4002 72.2423 69.8706 68.11L86.0918 95.9666L74.2372 92.7999Z" fill="#2F80ED"/>
<path d="M32.7041 33.4431C32.2255 34.905 32.6179 36.4795 33.7283 37.552L37.3203 41.0217L36.4737 45.9223C36.2121 47.4373 36.8288 48.9393 38.0833 49.8426C38.7919 50.3528 39.6205 50.6118 40.4549 50.6118C41.0978 50.6118 41.744 50.4579 42.341 50.1466L46.779 47.8317L51.2184 50.1441C52.5908 50.8589 54.2223 50.7418 55.4761 49.8379C56.7301 48.9342 57.346 47.4317 57.0834 45.917L56.2344 41.0166L59.8245 37.5451C60.9343 36.4719 61.3258 34.8972 60.8465 33.4357C60.367 31.9742 59.1161 30.9291 57.582 30.7084L52.6191 29.9947L50.3986 25.5366C49.7122 24.1586 48.3234 23.303 46.7736 23.303C46.7734 23.303 46.773 23.303 46.7725 23.303C45.2225 23.3034 43.8335 24.1599 43.1475 25.5384L40.9295 29.9976L35.967 30.714C34.4332 30.9358 33.1828 31.9813 32.7041 33.4431ZM42.7455 34.2365C43.477 34.131 44.1093 33.6751 44.4364 33.0179L46.7741 28.3182L49.1145 33.0168C49.442 33.674 50.0745 34.1294 50.806 34.2345L56.037 34.9868L52.2532 38.6456C51.724 39.1573 51.4826 39.8945 51.6077 40.6169L52.5025 45.7816L47.8235 43.3442C47.1692 43.0033 46.3873 43.0035 45.733 43.3446L41.0553 45.7845L41.9475 40.6193C42.0723 39.8969 41.8304 39.1598 41.301 38.6483L37.5153 34.9914L42.7455 34.2365Z" fill="#2F80ED"/>
<path d="M46.7758 66.0432C62.381 66.0432 75.0765 53.456 75.0765 37.984C75.0765 26.5801 68.208 16.3973 57.5781 12.0419C56.4308 11.5715 55.118 12.1127 54.6445 13.2493C54.1708 14.3859 54.7159 15.6882 55.8623 16.1579C64.8056 19.8223 70.5843 28.3897 70.5843 37.984C70.5843 51.0001 59.904 61.5894 46.7758 61.5894C33.6476 61.5894 22.9672 51.0001 22.9672 37.984C22.9672 28.3668 28.7649 19.7918 37.7373 16.1383C38.8848 15.6711 39.4331 14.3699 38.9619 13.2324C38.4904 12.0946 37.1785 11.5513 36.031 12.0183C25.3661 16.361 18.4751 26.5529 18.4751 37.984C18.4751 53.456 31.1709 66.0432 46.7758 66.0432Z" fill="#2F80ED"/>
<path d="M46.8046 14.3787C47.3953 14.3787 47.9748 14.1404 48.3926 13.7262C48.8104 13.312 49.0507 12.7374 49.0507 12.1517C49.0507 11.566 48.8104 10.9915 48.3926 10.5773C47.9748 10.1631 47.3953 9.9248 46.8046 9.9248C46.2139 9.9248 45.6344 10.1631 45.2166 10.5773C44.7966 10.9915 44.5585 11.566 44.5585 12.1517C44.5585 12.7374 44.7966 13.312 45.2166 13.7262C45.6344 14.1404 46.2139 14.3787 46.8046 14.3787Z" fill="#2F80ED"/>
</g>
</svg>
