<svg width="113" height="115" viewBox="0 0 113 115" fill="none" xmlns="http://www.w3.org/2000/svg">
<g opacity="0.1">
<path d="M111.112 110.598H1.88774C0.845172 110.598 0 111.443 0 112.485C0 113.528 0.84517 114.373 1.88774 114.373H111.112C112.155 114.373 113 113.528 113 112.485C113 111.443 112.155 110.598 111.112 110.598Z" fill="#2F80ED"/>
<path d="M109.045 17.2488L101.512 2.14678C101.041 1.2029 99.9108 0.825354 98.9927 1.29729L83.9261 8.84828C82.9844 9.32021 82.6077 10.4529 83.0786 11.3731C83.5494 12.2934 84.6794 12.6946 85.5975 12.2226L96.4973 6.77176L93.531 15.2902C80.6518 52.0448 47.8064 78.0162 9.25829 82.0994C8.21717 82.2097 7.44239 83.1273 7.53343 84.1703C7.62442 85.2126 8.54572 85.9855 9.58621 85.8763C49.6183 81.6745 83.7353 54.7117 97.0858 16.5408L100.123 7.83361L105.655 18.9477C106.126 19.8916 107.256 20.2691 108.174 19.7972C109.116 19.3253 109.492 18.1926 109.045 17.2488Z" fill="#2F80ED"/>
<path d="M22.6 91.7203H9.41663C8.38079 91.7203 7.53329 92.5698 7.53329 93.6081V104.935C7.53329 105.973 8.38079 106.822 9.41663 106.822H22.6C23.6358 106.822 24.4833 105.973 24.4833 104.935V93.6081C24.4833 92.5698 23.6358 91.7203 22.6 91.7203ZM20.7166 103.047H11.3V95.4958H20.7166V103.047Z" fill="#2F80ED"/>
<path d="M43.3166 86.057H30.1333C29.0975 86.057 28.25 86.9065 28.25 87.9448V104.934C28.25 105.973 29.0975 106.822 30.1333 106.822H43.3166C44.3525 106.822 45.2 105.973 45.2 104.934V87.9448C45.2 86.9065 44.3525 86.057 43.3166 86.057ZM41.4333 103.047H32.0166V89.8325H41.4333V103.047Z" fill="#2F80ED"/>
<path d="M64.0332 76.6184H50.8499C49.8141 76.6184 48.9666 77.4679 48.9666 78.5062V104.935C48.9666 105.973 49.8141 106.822 50.8499 106.822H64.0332C65.0691 106.822 65.9166 105.973 65.9166 104.935V78.5062C65.9166 77.4679 65.0691 76.6184 64.0332 76.6184ZM62.1499 103.047H52.7332V80.3939H62.1499V103.047Z" fill="#2F80ED"/>
<path d="M84.75 63.4042H71.5667C70.5308 63.4042 69.6833 64.2537 69.6833 65.2919V104.935C69.6833 105.973 70.5308 106.822 71.5667 106.822H84.75C85.7858 106.822 86.6333 105.973 86.6333 104.935V65.2919C86.6333 64.2537 85.7858 63.4042 84.75 63.4042ZM82.8666 103.047H73.45V67.1797H82.8666V103.047Z" fill="#2F80ED"/>
<path d="M105.467 36.9756H92.2832C91.2474 36.9756 90.3999 37.8251 90.3999 38.8633V104.934C90.3999 105.973 91.2474 106.822 92.2832 106.822H105.467C106.502 106.822 107.35 105.973 107.35 104.934V38.8633C107.35 37.8251 106.502 36.9756 105.467 36.9756ZM103.583 103.047H94.1666V40.7511H103.583V103.047Z" fill="#2F80ED"/>
<path d="M31.7812 3.38038C46.1508 3.38038 57.7646 15.0214 57.7646 29.4246C57.7646 43.7884 46.1114 55.4688 31.7812 55.4688C17.4117 55.4688 5.79793 43.8278 5.79793 29.4246C5.79793 15.0214 17.4117 3.38038 31.7812 3.38038ZM31.7812 0.223511C15.7188 0.223511 2.64844 13.3245 2.64844 29.4246C2.64844 45.5247 15.7188 58.6257 31.7812 58.6257C47.8437 58.6257 60.9141 45.5247 60.9141 29.4246C60.9141 13.3245 47.8437 0.223511 31.7812 0.223511Z" fill="#2F80ED"/>
<path d="M31.7813 6.85291C19.3408 6.85291 9.26242 16.9549 9.26242 29.4246C9.26242 41.8942 19.3408 51.9962 31.7813 51.9962C44.2218 51.9962 54.3002 41.8942 54.3002 29.4246C54.3002 16.9549 44.2218 6.85291 31.7813 6.85291ZM31.7813 48.5236C21.2699 48.5236 12.7269 39.9606 12.7269 29.4246C12.7269 18.8885 21.2699 10.3255 31.7813 10.3255C42.2927 10.3255 50.8357 18.8885 50.8357 29.4246C50.8357 39.9606 42.2927 48.5236 31.7813 48.5236Z" fill="#2F80ED"/>
<path d="M39.2612 28.1224C41.3871 24.9655 40.5998 20.6643 37.4109 18.5334C36.7416 18.0993 36.033 17.7442 35.2456 17.5469V13.8375H31.7812V17.3101H30.049V13.8375H26.5845V17.3101H21.3878V20.7432H23.1201V38.106H21.3878V41.5786H26.5845V45.0511H30.049V41.5786H31.7812V45.0511H35.2456V41.5786H36.9778C40.7966 41.5786 43.9067 38.5006 43.9067 34.6729C43.9067 31.7133 42.0564 29.0694 39.2612 28.1224ZM26.5845 20.7432H33.5134C35.4425 20.7432 36.9778 22.2822 36.9778 24.2158C36.9778 26.1493 35.4425 27.6883 33.5134 27.6883H26.5845V20.7432ZM36.9778 38.106H26.5845V31.1609H36.9778C38.9069 31.1609 40.4423 32.6998 40.4423 34.6334C40.4423 36.567 38.9069 38.106 36.9778 38.106Z" fill="#2F80ED"/>
</g>
</svg>
