<svg width="524" height="358" viewBox="0 0 524 358" fill="none" xmlns="http://www.w3.org/2000/svg">
  <g opacity="0.2" clip-path="url(#clip0)">
    <path
      d="M48.3911 358.001L483.536 357.677C483.536 357.677 547.133 267.083 514.872 195.983C496.966 156.47 440.997 132.388 367.248 150.213C312.879 163.35 271.991 117.854 224.85 110.898C223.75 110.724 222.649 110.599 221.549 110.475C198.316 107.957 173.483 115.211 144.723 143.656C123.891 164.273 116.064 229.738 72.3991 226.198C-10.3535 219.467 -27.2842 334.517 48.3911 358.001Z"
      fill="#CEE4FA" />
  </g>
  <g clip-path="url(#clip1)">
    <path
      d="M199.945 214.67L195.926 237.436L184.852 300.311L174.939 356.51C174.79 357.374 174.045 357.97 173.152 357.97C172.378 357.97 171.753 357.315 171.872 356.54L180.416 292.801L189.556 224.653L190.925 214.372L199.945 214.67Z"
      fill="#CED3F8" />
    <path
      d="M409.078 358C408.185 358 407.44 357.374 407.291 356.54L398.48 306.598L385.827 234.754L382.285 214.67L391.305 214.402L392.883 226.053L403.868 307.999L410.387 356.57C410.477 357.344 409.881 358 409.078 358Z"
      fill="#CED3F8" />
    <path
      d="M341.054 233.413C341.768 215.683 343.316 200.248 345.192 189.491C348.169 172.327 350.818 162.464 350.848 162.374C351.235 160.854 356.891 154.776 369.425 154.954C381.958 155.133 380.767 163.149 380.767 163.149C380.767 163.417 380.737 163.685 380.677 163.864C380.558 164.281 369.038 206.058 369.544 259.993C369.544 260.738 369.633 262.049 369.573 262.943C369.573 262.943 340.518 263.688 340.518 262.943C339.506 258.206 340.012 245.124 341.054 233.413Z"
      fill="#D7DDFD" />
    <path
      d="M337.422 259.695C337.422 260.44 337.839 261.036 338.315 261.036C338.791 261.036 339.178 260.411 339.178 259.695H364.096C364.096 260.44 364.512 261.036 364.989 261.036C365.495 261.036 365.882 260.411 365.852 259.636C365.703 244.2 366.596 229.778 367.906 217.054C371.211 185.319 377.343 164.102 377.432 163.804C377.492 163.626 377.522 163.357 377.522 163.089C377.522 163.089 378.712 155.074 366.179 154.895C353.646 154.716 347.99 160.825 347.603 162.315C347.573 162.404 346.055 167.976 344.061 178.018C343.406 181.356 342.691 185.17 341.947 189.431C340.101 200.188 338.523 215.624 337.809 233.354C336.767 245.124 336.41 254.987 337.422 259.695Z"
      fill="#E9EDFF" />
    <path
      d="M337.422 259.695C337.422 260.44 337.839 261.036 338.315 261.036C338.791 261.036 339.178 260.411 339.178 259.695H364.096C364.096 260.44 364.512 261.036 364.989 261.036C365.495 261.036 365.882 260.411 365.852 259.636C365.703 244.2 366.596 229.778 367.906 217.054C363.798 196.91 347.871 181.505 344.061 178.048C343.406 181.386 342.691 185.2 341.947 189.461C340.101 200.218 338.523 215.654 337.809 233.384C336.767 245.124 336.41 254.987 337.422 259.695Z"
      fill="#E9EDFF" />
    <path
      d="M362.667 259.368V259.278C362.667 259.248 362.667 259.248 362.667 259.219C362.696 257.49 363.381 226.619 365.138 211.78C366.18 202.751 372.64 165.086 372.669 164.937C372.729 164.788 372.729 164.579 372.729 164.4C372.729 164.311 372.997 162.434 371.568 160.735C370.169 159.067 367.668 158.202 364.155 158.143C354.837 157.994 350.521 162.553 350.223 163.775C350.163 164.013 343.019 193.126 341.768 209.515H341.917H341.768C341.649 211.035 341.411 213.627 341.084 216.905C339.178 236.185 337.392 256.775 340.042 257.252C345.222 258.146 350.402 258.116 354.569 258.057C358.38 258.027 361.387 257.967 362.19 258.801C362.339 258.95 362.399 259.129 362.399 259.338H362.429C362.429 259.427 362.458 259.457 362.488 259.457L362.548 259.517L362.667 259.368ZM354.569 257.729C350.402 257.788 345.251 257.848 340.101 256.924C339.327 256.775 338.553 254.093 339.238 242.055C339.684 233.831 340.667 224.027 341.352 216.905C341.679 213.627 341.917 211.035 342.036 209.515C343.287 193.066 350.402 164.102 350.491 163.834C350.789 162.672 354.867 158.411 363.738 158.411C363.887 158.411 364.006 158.411 364.155 158.411C367.579 158.471 369.99 159.305 371.33 160.884C372.699 162.493 372.431 164.311 372.431 164.371C372.431 164.549 372.401 164.728 372.372 164.847C372.342 164.967 365.912 202.513 364.81 211.75C363.887 219.706 363.262 232.192 362.905 241.28C362.696 246.465 362.548 251.084 362.488 254.034C362.429 256.537 362.369 257.878 362.369 258.593C361.684 257.878 359.719 257.759 356.921 257.759C356.207 257.699 355.403 257.729 354.569 257.729Z"
      fill="#CED3F8" />
    <path
      d="M367.698 261.066H270.053C270.053 261.066 272.315 251.858 328.878 253.229C368.888 254.183 367.698 261.066 367.698 261.066Z"
      fill="#E1E5F9" />
    <path
      d="M375.646 357.255C364.334 299.893 367.222 264.672 367.251 264.255C367.281 263.361 365.644 262.556 364.78 262.526C363.887 262.496 359.988 262.258 359.541 263.033C358.946 264.016 356.683 307.403 373.533 357.255H375.646Z"
      fill="#CED3F8" />
    <path
      d="M284.491 357.255C295.804 299.893 292.916 264.672 292.887 264.255C292.857 263.361 294.494 262.556 295.357 262.526C296.251 262.496 300.15 262.258 300.597 263.033C301.192 264.016 303.455 307.403 286.605 357.255H284.491Z"
      fill="#CED3F8" />
    <path
      d="M266.421 357.255C277.734 299.893 274.846 264.672 274.816 264.255C274.786 263.361 276.424 262.556 277.287 262.526C278.18 262.496 282.08 262.258 282.527 263.033C283.122 264.016 285.384 307.403 268.535 357.255H266.421Z"
      fill="#CED3F8" />
    <path
      d="M357.457 357.255C346.144 299.893 349.032 264.672 349.062 264.255C349.092 263.361 347.454 262.556 346.591 262.526C345.698 262.496 341.798 262.258 341.352 263.033C340.756 264.016 338.494 307.403 355.343 357.255H357.457Z"
      fill="#CED3F8" />
    <path
      d="M269.994 263.986H367.638C368.74 263.986 369.633 263.092 369.633 261.99V260.679C369.633 259.576 368.74 258.682 367.638 258.682H269.994C268.892 258.682 267.999 259.576 267.999 260.679V261.99C267.999 263.092 268.892 263.986 269.994 263.986Z"
      fill="#D7DDFD" />
    <path
      d="M273.447 175.724L240.998 168.691L239.092 173.37C239.092 173.37 274.905 194.705 278.269 193.662C281.603 192.59 273.447 175.724 273.447 175.724Z"
      fill="#FBBEAC" />
    <path
      d="M302.948 322.659C303.752 323.583 303.871 324.626 303.455 325.758C303.455 325.758 303.455 325.758 303.455 325.788C302.71 327.844 300.239 330.139 297.411 332.433C297.054 332.731 296.727 332.999 296.429 333.238C296.369 333.297 296.28 333.357 296.22 333.446C296.161 333.506 296.101 333.536 296.042 333.595C293.392 336.039 294.375 336.605 289.612 341.611C284.164 347.302 280.413 347.392 279.341 346.885C278.448 346.438 280.264 343.429 282.318 340.032C282.407 339.883 282.526 339.704 282.616 339.525C282.884 339.078 283.152 338.631 283.42 338.154C285.801 334.072 285.206 332.165 284.64 326.116C284.194 321.199 276.989 298.582 276.989 298.582L287.438 296.794C287.438 296.794 290.594 314.792 294.047 317.564C295.893 319.054 297.977 319.054 299.763 320.156C299.882 320.246 300.001 320.305 300.12 320.395C301.103 321.05 302.115 321.735 302.948 322.659Z"
      fill="#FBBEAC" />
    <path
      d="M302.948 322.659C303.752 323.583 303.871 324.626 303.455 325.758C303.455 325.758 303.455 325.758 303.455 325.788C302.532 327.844 300.15 330.139 297.381 332.403C297.024 332.701 296.697 332.969 296.429 333.238C296.369 333.297 296.28 333.357 296.22 333.446C296.161 333.506 296.101 333.536 296.042 333.595C293.392 336.039 294.375 336.605 289.612 341.611C284.164 347.302 280.413 347.392 279.341 346.885C278.448 346.438 280.264 343.429 282.318 340.032C283.39 339.644 288.302 337.648 292.053 332.85C295.327 328.649 297.53 323.255 299.763 320.156C299.882 320.246 300.001 320.305 300.12 320.395C301.103 321.05 302.115 321.735 302.948 322.659Z"
      fill="#1F196F" />
    <path
      d="M218.67 316.133C218.015 319.352 213.431 318.815 208.281 317.564C203.13 316.312 204.351 317.802 197.057 316.998C189.734 316.193 187.531 313.452 187.293 312.379C187.085 311.425 190.717 311.068 194.587 310.621C195.063 310.561 195.569 310.502 196.045 310.442C200.421 309.906 203.637 307.075 207.596 304.75C211.347 302.545 216.973 293.606 216.973 293.606L227.006 294.41C227.006 294.41 221.737 302.396 219.712 305.883C218.521 307.939 218.581 310.621 218.73 312.736C218.819 313.839 218.879 315.001 218.67 316.133Z"
      fill="#FBBEAC" />
    <path
      d="M208.281 317.564C203.13 316.312 204.351 317.802 197.057 316.998C189.734 316.193 187.531 313.452 187.293 312.379C187.085 311.425 190.717 311.068 194.587 310.621L194.616 310.68C194.616 310.68 198.992 313.779 205.095 313.928C210.067 314.047 215.306 312.617 218.73 312.677C218.819 313.809 218.879 314.971 218.641 316.104C218.015 319.352 213.431 318.815 208.281 317.564Z"
      fill="#1F196F" />
    <path
      d="M240.968 168.691C240.968 168.691 238.586 162.821 235.937 162.583C233.317 162.344 224.952 161.033 224.356 162.225C223.761 163.417 224.356 167.738 226.143 169.287C227.929 170.837 239.033 173.34 239.033 173.34L240.968 168.691Z"
      fill="#FBBEAC" />
    <path
      d="M257.103 251.948L278.716 310.174C278.716 310.174 282.05 310.501 285.206 309.578C288.123 308.743 291.487 306.509 291.487 306.509C291.487 306.509 286.129 250.607 276.305 238.986C266.48 227.334 257.103 251.948 257.103 251.948Z"
      fill="url(#paint0_linear)" />
    <path
      d="M342.572 228.377C342.572 228.377 280.472 207.37 266.629 211.839C252.786 216.309 211.198 299.148 211.198 299.148C211.198 299.148 212.121 300.4 214.711 301.353C217.092 302.247 222.868 302.188 222.868 302.188C222.868 302.188 260.407 269.976 264.873 260.589C269.338 251.203 271.124 242.263 275.59 243.157C280.055 244.051 333.224 265.059 345.281 252.544C357.338 240.028 354.182 223.759 354.182 223.759L342.572 228.377Z"
      fill="url(#paint1_linear)" />
    <path
      d="M301.4 84.2132C304.02 82.7233 307.533 81.1439 309.974 80.7268C310.093 80.697 312.623 80.399 312.743 80.399C314.439 80.4884 315.511 80.4884 316.255 80.4586C317.297 80.399 318.994 80.6076 320.006 80.846C320.423 80.9354 321.316 81.2333 321.644 81.3525C322.15 81.5611 323.698 82.3061 323.936 82.4253C340.518 91.6032 338.344 105.221 337.957 111.777C337.541 118.422 339.714 121.044 349.419 127.004C368.471 138.744 352.396 159.216 352.396 159.216C352.306 159.275 348.139 166.308 345.549 170.688C344.805 171.939 343.018 171.88 342.334 170.628C337.332 161.272 317.803 139.638 306.64 132.129C306.431 131.98 306.253 131.831 306.134 131.622C303.157 126.944 305.449 136.241 305.36 135.585C307.503 140.025 303.335 119.256 303.335 119.196C303.603 115.203 304.02 114.667 303.395 112.551C299.406 98.9931 296.101 87.193 301.4 84.2132Z"
      fill="#49474D" />
    <path
      d="M307.086 132.308C307.027 132.337 313.308 135.615 318.071 134.304C322.537 133.082 325.454 127.301 325.395 127.301C323.519 126.914 322.954 124.322 323.013 113.177L322.15 113.356L307.801 116.187C307.801 116.187 308.128 120.716 308.128 124.977C308.128 128.553 307.92 131.92 307.086 132.308Z"
      fill="#FBBEAC" />
    <path
      d="M307.771 116.187C307.771 116.187 308.099 120.716 308.099 124.977C316.137 124.739 320.364 117.408 322.12 113.356L307.771 116.187Z"
      fill="#F2B5A4" />
    <path
      d="M323.609 111.777C323.609 111.777 327.806 105.132 328.818 99.4401C329.533 95.3875 327.479 80.3096 312.356 82.4849C312.356 82.4849 307.95 82.9319 303.842 85.7031C300.567 87.9082 295.833 92.7057 301.132 105.847L302.502 110.287L323.609 111.777Z"
      fill="#49474D" />
    <path
      d="M305.092 120.21C305.092 120.21 324.085 120.537 324.115 108.678C324.115 96.8178 326.586 88.8915 314.469 88.2061C302.353 87.491 299.971 92.0203 299.019 95.9835C298.036 99.9169 300.15 119.822 305.092 120.21Z"
      fill="#FBBEAC" />
    <path
      d="M305.36 86.1501C305.36 86.1501 310.57 100.036 318.548 102.092C326.526 104.148 330.009 102.003 330.009 102.003C330.009 102.003 328.58 93.5102 327.33 84.9879C327.3 85.0177 309.26 79.5348 305.36 86.1501Z"
      fill="#49474D" />
    <path
      d="M359.868 195.033C366.864 181.117 352.932 145.121 346.234 135.734C341.113 128.583 326.675 127.391 325.484 127.302C325.454 127.302 325.425 127.302 325.425 127.302C309.498 136.748 308.069 128.911 308.069 128.911C308.069 128.911 293.601 130.818 289.522 137.88C284.432 146.641 278.954 171.105 273.506 175.724C274.34 178.286 273.982 179.657 273.089 182.846C272.911 183.531 272.702 184.186 272.464 184.782C271.631 187.017 270.618 188.835 269.725 190.414C272.494 192.113 277.852 195.301 281.782 193.007C287.796 189.491 292.469 178.763 295.119 174.502C295.119 174.472 295.149 174.472 295.149 174.442C300.894 206.952 293.095 214.342 297.024 217.769C301.192 221.375 307.146 216.041 320.245 221.732C328.848 225.457 340.786 230.851 348.794 231.804C352.991 232.311 356.147 231.566 357.159 228.705C360.047 220.66 346.65 199.711 349.151 184.782C352.039 186.511 356.028 189.61 359.868 195.033Z"
      fill="url(#paint2_linear)" />
    <path
      d="M295.059 174.472C292.41 178.733 287.736 189.461 281.722 192.977C277.793 195.271 272.434 192.083 269.666 190.385C270.559 188.805 271.571 186.988 272.405 184.753C274.608 185.259 277.317 185.915 279.043 186.421C282.437 187.494 295.059 174.472 295.059 174.472Z"
      fill="#ED7D2B" />
    <path
      d="M156.065 214.67L152.046 237.436L140.971 300.311L131.058 356.51C130.909 357.374 130.165 357.97 129.272 357.97C128.498 357.97 127.873 357.315 127.992 356.54L136.536 292.801L145.675 224.653L147.044 214.372L156.065 214.67Z"
      fill="#CED3F8" />
    <path opacity="0.44"
      d="M152.046 237.436C152.582 227.662 145.675 224.682 145.675 224.682L147.044 214.402L156.065 214.67L152.046 237.436Z"
      fill="white" />
    <path
      d="M459.658 358C458.765 358 458.02 357.374 457.872 356.54L449.06 306.598L436.408 234.754L432.865 214.67L441.885 214.402L443.463 226.053L454.448 307.999L460.968 356.57C461.027 357.344 460.432 358 459.658 358Z"
      fill="#CED3F8" />
    <path opacity="0.44"
      d="M443.432 226.083C437.597 228.675 436.377 234.754 436.377 234.754L432.834 214.67L441.854 214.402L443.432 226.083Z"
      fill="white" />
    <path d="M264.694 206.774H301.043C301.043 205.165 299.733 203.883 298.156 203.883H264.694V206.774Z"
      fill="#1F196F" />
    <path d="M264.784 167.142H208.578L222.064 206.774H278.627L264.784 167.142Z" fill="#1F196F" />
    <path d="M207.745 167.142L221.231 206.774H277.823L263.95 167.142H207.745Z" fill="#1F196F" />
    <path
      d="M238.05 186.6C238.408 188.12 239.896 189.342 241.414 189.342C242.933 189.342 243.856 188.12 243.528 186.6C243.171 185.081 241.682 183.859 240.164 183.859C238.646 183.859 237.723 185.081 238.05 186.6Z"
      fill="white" />
    <path
      d="M465.283 51.8224H374.247C371.746 51.8224 369.692 53.8785 369.692 56.3816V102.599C369.692 105.102 371.746 107.158 374.247 107.158H381.928L378.207 122.862L401.546 107.158H465.283C467.784 107.158 469.838 105.102 469.838 102.599V56.3816C469.838 53.8785 467.784 51.8224 465.283 51.8224Z"
      fill="#D7DDFD" />
    <path
      d="M460.073 72.4131H379.635C378.534 72.4131 377.641 73.307 377.641 74.4096C377.641 75.5121 378.534 76.4061 379.635 76.4061H460.073C461.175 76.4061 462.068 75.5121 462.068 74.4096C462.068 73.307 461.175 72.4131 460.073 72.4131Z"
      fill="white" />
    <path
      d="M460.073 81.3526H379.635C378.534 81.3526 377.641 82.2465 377.641 83.3491C377.641 84.4516 378.534 85.3455 379.635 85.3455H460.073C461.175 85.3455 462.068 84.4516 462.068 83.3491C462.068 82.2465 461.175 81.3526 460.073 81.3526Z"
      fill="white" />
    <path
      d="M460.073 90.2623H379.635C378.534 90.2623 377.641 91.1562 377.641 92.2588C377.641 93.3613 378.534 94.2552 379.635 94.2552H460.073C461.175 94.2552 462.068 93.3613 462.068 92.2588C462.068 91.1562 461.175 90.2623 460.073 90.2623Z"
      fill="white" />
    <path
      d="M382.106 62.5498H416.252C417.562 62.5498 418.634 61.4771 418.634 60.166C418.634 58.8548 417.562 57.7821 416.252 57.7821H382.106C380.796 57.7821 379.725 58.8548 379.725 60.166C379.725 61.4771 380.796 62.5498 382.106 62.5498Z"
      fill="white" />
    <path
      d="M425.034 62.5499H445.575C446.617 62.5499 447.451 61.7155 447.451 60.6726V59.6892C447.451 58.6463 446.617 57.8119 445.575 57.8119H425.034C423.992 57.8119 423.159 58.6463 423.159 59.6892V60.6726C423.188 61.7155 424.022 62.5499 425.034 62.5499Z"
      fill="white" />
    <path
      d="M469.272 222.567H120.728C117.037 222.567 114 219.527 114 215.803V213.508C114 209.813 117.037 206.774 120.728 206.774H469.272C472.963 206.774 476 209.813 476 213.508V215.803C476 219.527 472.963 222.567 469.272 222.567Z"
      fill="#D7DDFD" />
    <path
      d="M317.625 192.232C317.625 192.232 313.606 189.103 309.796 189.848C305.985 190.593 304.139 193.215 304.288 194.407C304.437 195.599 306.461 198.966 309.349 199.264C312.266 199.562 320.513 197.477 320.513 197.477L317.625 192.232Z"
      fill="#FBBEAC" />
    <path
      d="M348.586 184.157L317.625 192.232L320.542 197.447C320.542 197.447 358.201 197.179 360.196 194.884C362.19 192.59 348.586 184.157 348.586 184.157Z"
      fill="#FBBEAC" />
  </g>
  <path d="M164.398 101.959L194.822 111.911L176.603 94.1218L174.758 98.4723L166.928 98.5021L164.398 101.959Z"
    fill="#CED3F8" />
  <path d="M194.822 111.911L171.215 93.9132L146 88.1621L194.822 111.911Z" fill="#D7DDFD" />
  <path d="M176.603 94.1218L194.822 111.911L182.676 87L176.603 94.1218Z" fill="#D7DDFD" />
  <path d="M225.425 14.9588L195 24.9114L213.219 7.1218L215.065 11.4723L222.894 11.5021L225.425 14.9588Z"
    fill="#CED3F8" />
  <path d="M195 24.9114L218.607 6.91318L243.822 1.16211L195 24.9114Z" fill="#D7DDFD" />
  <path d="M213.219 7.1218L195 24.9114L207.146 0L213.219 7.1218Z" fill="#D7DDFD" />
  <defs>
    <linearGradient id="paint0_linear" x1="257.096" y1="273.038" x2="291.498" y2="273.038"
      gradientUnits="userSpaceOnUse">
      <stop stop-color="#0473FB" />
      <stop offset="1" stop-color="#0056C7" />
    </linearGradient>
    <linearGradient id="paint1_linear" x1="211.19" y1="256.702" x2="354.543" y2="256.702"
      gradientUnits="userSpaceOnUse">
      <stop stop-color="#0473FB" />
      <stop offset="1" stop-color="#0056C7" />
    </linearGradient>
    <linearGradient id="paint2_linear" x1="269.657" y1="179.624" x2="361.777" y2="179.624"
      gradientUnits="userSpaceOnUse">
      <stop stop-color="#DD8D02" />
      <stop offset="0.2294" stop-color="#DF9207" />
      <stop offset="0.5127" stop-color="#E6A115" />
      <stop offset="0.8232" stop-color="#F2BA2D" />
      <stop offset="1" stop-color="#FACC3E" />
    </linearGradient>
    <clipPath id="clip0">
      <rect width="524" height="248" fill="white" transform="translate(0 110)" />
    </clipPath>
    <clipPath id="clip1">
      <rect width="362" height="346.107" fill="white" transform="translate(114 11.8927)" />
    </clipPath>
  </defs>
</svg>
