<svg width="131" height="115" viewBox="0 0 131 115" fill="none" xmlns="http://www.w3.org/2000/svg">
<g opacity="0.1">
<path d="M69.6901 77.4368H1.61943C0.725042 77.4368 0 78.1619 0 79.0563C0 79.9506 0.725038 80.6757 1.61942 80.6757H69.6901V77.4368Z" fill="#2F80ED"/>
<path d="M71.5921 6.47534C68.4874 6.47534 65.9858 8.97774 65.9858 12.0338C65.9858 15.0898 68.5098 17.5922 71.5921 17.5922C74.6968 17.5922 77.1984 15.0898 77.1984 12.0338C77.1984 8.97774 74.6968 6.47534 71.5921 6.47534ZM71.5921 14.049C70.4753 14.049 69.5596 13.141 69.5596 12.0338C69.5596 10.9265 70.4753 10.0186 71.5921 10.0186C72.7089 10.0186 73.6247 10.9265 73.6247 12.0338C73.6247 13.141 72.7312 14.049 71.5921 14.049Z" fill="#2F80ED"/>
<path d="M87.0043 6.47534C83.8997 6.47534 81.398 8.97774 81.398 12.0338C81.398 15.0898 83.922 17.5922 87.0043 17.5922C90.0867 17.5922 92.6106 15.0898 92.6106 12.0338C92.6106 8.9556 90.0867 6.47534 87.0043 6.47534ZM87.0043 14.049C85.8875 14.049 84.9718 13.141 84.9718 12.0338C84.9718 10.9265 85.8875 10.0186 87.0043 10.0186C88.1211 10.0186 89.0369 10.9265 89.0369 12.0338C89.0369 13.141 88.1211 14.049 87.0043 14.049Z" fill="#2F80ED"/>
<path d="M102.17 6.47534C99.0649 6.47534 96.5633 8.97774 96.5633 12.0338C96.5633 15.0898 99.0872 17.5922 102.17 17.5922C105.274 17.5922 107.776 15.0898 107.776 12.0338C107.776 8.97774 105.252 6.47534 102.17 6.47534ZM102.17 14.049C101.053 14.049 100.137 13.141 100.137 12.0338C100.137 10.9265 101.053 10.0186 102.17 10.0186C103.286 10.0186 104.202 10.9265 104.202 12.0338C104.202 13.141 103.286 14.049 102.17 14.049Z" fill="#2F80ED"/>
<path d="M84.9715 31.0785H46.7774C45.7946 31.0785 44.9905 31.8757 44.9905 32.8501V42.3282C44.9905 43.3026 45.7946 44.0999 46.7774 44.0999H84.9715C85.9543 44.0999 86.7584 43.3026 86.7584 42.3282V32.8501C86.7584 31.8757 85.9543 31.0785 84.9715 31.0785ZM83.1846 40.5566H48.5642V34.6439H83.1846V40.5566Z" fill="#2F80ED"/>
<path d="M54.6618 35.8176H54.416C53.4331 35.8176 52.629 36.6149 52.629 37.5895C52.629 38.564 53.4331 39.3613 54.416 39.3613H54.6618C55.6446 39.3613 56.4488 38.564 56.4488 37.5895C56.4488 36.6149 55.6446 35.8176 54.6618 35.8176Z" fill="#2F80ED"/>
<path d="M62.3007 35.8176H62.055C61.0721 35.8176 60.2679 36.6149 60.2679 37.5895C60.2679 38.564 61.0721 39.3613 62.055 39.3613H62.3007C63.2836 39.3613 64.0878 38.564 64.0878 37.5895C64.0878 36.6149 63.2836 35.8176 62.3007 35.8176Z" fill="#2F80ED"/>
<path d="M69.9397 35.8176H69.6939C68.711 35.8176 67.9069 36.6149 67.9069 37.5895C67.9069 38.564 68.711 39.3613 69.6939 39.3613H69.9397C70.9226 39.3613 71.7267 38.564 71.7267 37.5895C71.7267 36.6149 70.9226 35.8176 69.9397 35.8176Z" fill="#2F80ED"/>
<path d="M77.5786 35.8176H77.3329C76.35 35.8176 75.5458 36.6149 75.5458 37.5895C75.5458 38.564 76.35 39.3613 77.3329 39.3613H77.5786C78.5615 39.3613 79.3657 38.564 79.3657 37.5895C79.3657 36.6149 78.5615 35.8176 77.5786 35.8176Z" fill="#2F80ED"/>
<path d="M128.906 68.9468C129.889 68.9468 130.693 68.1495 130.693 67.1751V49.9019C130.693 49.1047 130.157 48.396 129.352 48.1967L115.393 44.4985V4.46003C115.415 2.42268 113.762 0.783936 111.707 0.783936H20.0414C17.9865 0.783936 16.3336 2.42268 16.3336 4.46003V68.836C16.3336 70.8512 17.9865 72.5121 20.0414 72.5121H69.8277V91.557C69.8277 92.1327 70.0958 92.6642 70.5648 92.9964L99.1992 113.813C99.8246 114.256 100.696 114.256 101.321 113.813L129.978 92.9743C130.447 92.6421 130.715 92.1106 130.715 91.5348V65.8021C130.715 64.8278 129.911 64.0305 128.928 64.0305C127.945 64.0305 127.141 64.8278 127.141 65.8021V90.6712L100.249 110.181L73.3791 90.649V51.2749L100.249 44.1663L127.119 51.2749V67.1973C127.119 68.1717 127.923 68.9468 128.906 68.9468ZM69.8054 57.5863H48.5641V51.6735H69.8054V57.5863ZM111.841 19.7181H96.3626C95.3798 19.7181 94.5757 20.5153 94.5757 21.4897C94.5757 22.4641 95.3798 23.2613 96.3626 23.2613H111.841V43.5463L100.718 40.6009C100.405 40.5124 100.093 40.5124 99.8023 40.6009L71.1679 48.1746C71.0339 48.1303 70.8775 48.1303 70.7435 48.1303H46.7772C45.7945 48.1303 44.9904 48.9275 44.9904 49.9019V59.38C44.9904 60.3544 45.7945 61.1517 46.7772 61.1517H69.8054V68.9689H20.0414C19.9743 68.9689 19.9297 68.9246 19.9297 68.8582V23.2613H97.6581C98.6408 23.2613 99.4449 22.4641 99.4449 21.4897C99.4449 20.5153 98.6408 19.7181 97.6581 19.7181H19.9073V4.46003C19.9073 4.3936 19.952 4.34931 20.019 4.34931H111.707C111.774 4.34931 111.819 4.3936 111.819 4.46003L111.841 19.7181Z" fill="#2F80ED"/>
<path d="M100.249 65.3814C97.4345 65.3814 95.1562 67.6402 95.1562 70.4305C95.1562 71.0949 95.6923 71.6263 96.3624 71.6263C97.0324 71.6263 97.5685 71.0949 97.5685 70.4305C97.5685 68.9689 98.7746 67.7952 100.226 67.7952C101.678 67.7952 102.884 68.9911 102.884 70.4305C102.884 71.8921 101.678 73.0658 100.226 73.0658C99.5564 73.0658 99.0203 73.5973 99.0203 74.2616V78.1149C99.0203 78.7792 99.5564 79.3107 100.226 79.3107C100.897 79.3107 101.433 78.7792 101.433 78.1149V75.3246C103.666 74.7931 105.319 72.8 105.319 70.4084C105.341 67.6402 103.063 65.3814 100.249 65.3814Z" fill="#2F80ED"/>
<path d="M100.249 80.7723C99.5786 80.7723 99.0424 81.3038 99.0424 81.9683V83.2528C99.0424 83.9173 99.5786 84.4488 100.249 84.4488C100.919 84.4488 101.455 83.9173 101.455 83.2528V81.9683C101.477 81.3038 100.919 80.7723 100.249 80.7723Z" fill="#2F80ED"/>
<path d="M116.845 84.8691C116.822 81.1045 114.298 77.9598 110.948 77.1848C112.355 74.9038 113.07 72.1578 112.936 69.3011C112.623 62.4804 107.307 56.8776 100.83 56.5676C100.629 56.5676 100.428 56.5455 100.227 56.5455C96.9435 56.5455 93.8388 57.852 91.4489 60.2437C88.925 62.7904 87.5178 66.2451 87.5178 69.9212C87.5178 72.5343 88.2549 75.0367 89.528 77.1626C86.1553 77.9598 83.6314 81.1266 83.6314 84.9134V84.9356C83.6314 84.9799 83.6314 85.0463 83.6314 85.0906C83.6314 85.1349 83.6314 85.2013 83.6314 85.2456C83.6984 86.22 84.4802 86.9729 85.4183 86.9729C86.3787 86.9729 87.1604 86.1979 87.2051 85.2013C87.2051 85.157 87.2051 85.1127 87.2051 85.0906C87.2051 85.0684 87.2051 85.0242 87.2051 85.002V84.9799C87.2051 84.9356 87.2051 84.9134 87.2051 84.9134C87.2051 82.6103 88.992 80.728 91.1585 80.728H95.2013C95.7597 80.728 96.2288 80.3294 96.3851 79.7758C96.5191 79.2221 96.2734 78.6242 95.8044 78.3363C92.9007 76.6311 91.0915 73.4201 91.0915 69.9212C91.0915 67.2637 92.0966 64.7835 93.9282 62.9676C95.648 61.2402 97.8593 60.3101 100.227 60.3101C100.383 60.3101 100.517 60.3101 100.674 60.3323C105.319 60.5537 109.139 64.5842 109.362 69.4783C109.519 73.1765 107.732 76.5647 104.649 78.3585C104.158 78.6463 103.935 79.2443 104.069 79.7979C104.203 80.3737 104.694 80.7501 105.252 80.7501H109.295C111.484 80.7501 113.249 82.6325 113.249 84.9356C113.249 84.9356 113.249 85.002 113.249 85.0906V85.1127C113.249 85.1349 113.249 85.1792 113.249 85.2013C113.293 86.1979 114.075 86.9951 115.035 86.9951C115.951 86.9951 116.711 86.2643 116.822 85.3342C116.822 85.2677 116.845 85.1792 116.845 85.1127C116.867 85.0463 116.845 84.9577 116.845 84.8691Z" fill="#2F80ED"/>
</g>
</svg>
