<svg width="19" height="18" viewBox="0 0 19 18" fill="none" xmlns="http://www.w3.org/2000/svg">
  <path
    d="M18.6705 16.007C18.4904 16.007 18.341 16.1596 18.341 16.3436V16.4918C18.341 16.9541 17.9764 17.3267 17.5239 17.3267H1.47607C1.02358 17.3267 0.65896 16.9541 0.65896 16.4918V2.42843H15.6569C15.837 2.42843 15.9864 2.27581 15.9864 2.09177C15.9864 1.90773 15.837 1.75511 15.6569 1.75511H0.65896V1.51272C0.65896 1.05037 1.02798 0.673317 1.47607 0.673317H17.5195C17.972 0.673317 18.3366 1.04589 18.3366 1.50823V1.75062H17.0583C16.8782 1.75062 16.7288 1.90324 16.7288 2.08728C16.7288 2.27132 16.8782 2.42394 17.0583 2.42394H18.3366V16.411C18.3366 16.595 18.486 16.9631 18.6661 16.9631C18.8462 16.9631 18.9956 16.8284 18.9956 16.6444V1.50823C18.9956 0.677805 18.3323 0 17.5195 0H1.47607C0.663353 0 0 0.677805 0 1.50823V16.4918C0 17.3267 0.663353 18 1.47607 18H17.5195C18.3323 18 18.9956 17.3222 18.9956 16.4918V16.3436C19 16.1596 18.8506 16.007 18.6705 16.007Z"
    fill="#2F92F6" />
  <path
    d="M14.7738 7.86882V3.90523C14.7738 3.46982 14.4268 3.1152 14.0007 3.1152H4.70054C4.52043 3.1152 4.37106 3.26782 4.37106 3.45186C4.37106 3.6359 4.52043 3.78852 4.70054 3.78852H14.0007C14.0622 3.78852 14.1149 3.84239 14.1149 3.90523V7.86882C14.1149 7.93166 14.0622 7.98553 14.0007 7.98553H2.135C2.07349 7.98553 2.02078 7.93166 2.02078 7.86882V3.90523C2.02078 3.84239 2.07349 3.78852 2.135 3.78852H3.29476C3.47488 3.78852 3.62424 3.6359 3.62424 3.45186C3.62424 3.26782 3.47488 3.1152 3.29476 3.1152H2.135C1.70887 3.1152 1.36182 3.46982 1.36182 3.90523V7.86882C1.36182 8.30423 1.70887 8.65884 2.135 8.65884H14.0007C14.4268 8.65884 14.7738 8.30423 14.7738 7.86882Z"
    fill="#2F92F6" />
  <path
    d="M3.20695 4.39451C3.06637 4.43491 2.96533 4.56957 2.96533 4.7177V6.98005C2.96533 7.16409 3.1147 7.31671 3.29481 7.31671C3.47493 7.31671 3.62429 7.16409 3.62429 6.98005V5.92518L4.35354 7.15511C4.41504 7.25835 4.52047 7.31671 4.63469 7.31671C4.66544 7.31671 4.6918 7.31222 4.72255 7.30324C4.86313 7.26284 4.96417 7.12818 4.96417 6.98005V4.7177C4.96417 4.53366 4.81481 4.38104 4.63469 4.38104C4.45458 4.38104 4.30521 4.53366 4.30521 4.72219V5.77705L3.57597 4.54713C3.50128 4.41695 3.34753 4.35411 3.20695 4.39451Z"
    fill="#2F92F6" />
  <path
    d="M7.07294 5.05885C7.25306 5.05885 7.40242 4.90623 7.40242 4.72219C7.40242 4.53815 7.25306 4.38553 7.07294 4.38553H5.97029C5.68474 4.38553 5.4519 4.62343 5.4519 4.9152V6.79151C5.4519 7.08329 5.68474 7.32119 5.97029 7.32119H7.07294C7.25306 7.32119 7.40242 7.16857 7.40242 6.98453C7.40242 6.80049 7.25306 6.64787 7.07294 6.64787H6.11086V6.19002H6.42716C6.60728 6.19002 6.75664 6.0374 6.75664 5.85336C6.75664 5.66932 6.60728 5.5167 6.42716 5.5167H6.11086V5.05885H7.07294Z"
    fill="#2F92F6" />
  <path
    d="M8.43475 7.31672C8.57972 7.33917 8.7203 7.26286 8.7818 7.1282L8.97949 6.70625L9.15082 7.16859C9.19915 7.29877 9.32215 7.38406 9.45834 7.38406C9.47152 7.38406 9.48031 7.38406 9.49348 7.38406C9.64285 7.3661 9.76146 7.24939 9.78343 7.10126L10.1349 4.76709C10.1612 4.58305 10.0382 4.41248 9.85811 4.38106C9.67799 4.35413 9.51106 4.47981 9.4803 4.66385L9.31776 5.73667L9.31337 5.72769C9.26504 5.60201 9.15082 5.51672 9.01903 5.51223C8.88724 5.50774 8.76423 5.58405 8.70712 5.70525L8.64562 5.83991L8.47868 4.67283C8.45232 4.48879 8.28539 4.3631 8.10527 4.39004C7.92515 4.41697 7.80215 4.58754 7.82851 4.77158L8.15799 7.03393C8.17995 7.17757 8.29417 7.29428 8.43475 7.31672Z"
    fill="#2F92F6" />
  <path
    d="M10.9254 6.7152C10.7453 6.7152 10.5959 6.86782 10.5959 7.05186C10.5959 7.2359 10.7453 7.38852 10.9254 7.38852H11.9402C12.2873 7.38852 12.5684 7.10124 12.5684 6.74662V6.15411C12.5684 5.79949 12.2873 5.51221 11.9402 5.51221H11.2549V5.05436H12.2389C12.4191 5.05436 12.5684 4.90174 12.5684 4.7177C12.5684 4.53366 12.4191 4.38104 12.2389 4.38104H11.2242C10.8771 4.38104 10.5959 4.66832 10.5959 5.02294V5.54812C10.5959 5.90274 10.8771 6.19002 11.2242 6.19002H11.9095V6.7152H10.9254Z"
    fill="#2F92F6" />
  <path
    d="M4.87195 9.89328C4.87195 9.49827 4.56004 9.17957 4.17345 9.17957H3.00929C2.6227 9.17957 2.31079 9.49827 2.31079 9.89328V11.0828C2.31079 11.4778 2.6227 11.7965 3.00929 11.7965H4.17345C4.56004 11.7965 4.87195 11.4778 4.87195 11.0828V9.89328ZM4.21299 11.0828C4.21299 11.1053 4.19542 11.1232 4.17345 11.1232H3.00929C2.98732 11.1232 2.96975 11.1053 2.96975 11.0828V9.89328C2.96975 9.87084 2.98732 9.85288 3.00929 9.85288H4.17345C4.19542 9.85288 4.21299 9.87084 4.21299 9.89328V11.0828Z"
    fill="#2F92F6" />
  <path
    d="M4.17345 13.1476H3.00929C2.6227 13.1476 2.31079 13.4663 2.31079 13.8614V15.0509C2.31079 15.4459 2.6227 15.7646 3.00929 15.7646H4.17345C4.56004 15.7646 4.87195 15.4459 4.87195 15.0509V13.8614C4.87195 13.4663 4.55565 13.1476 4.17345 13.1476ZM4.21299 15.0509C4.21299 15.0733 4.19542 15.0913 4.17345 15.0913H3.00929C2.98732 15.0913 2.96975 15.0733 2.96975 15.0509V13.8614C2.96975 13.8389 2.98732 13.821 3.00929 13.821H4.17345C4.19542 13.821 4.21299 13.8389 4.21299 13.8614V15.0509Z"
    fill="#2F92F6" />
  <path
    d="M10.9254 10.1491H5.8954C5.71528 10.1491 5.56592 10.3018 5.56592 10.4858C5.56592 10.6698 5.71528 10.8224 5.8954 10.8224H10.9254C11.1056 10.8224 11.2549 10.6698 11.2549 10.4858C11.2549 10.3018 11.11 10.1491 10.9254 10.1491Z"
    fill="#2F92F6" />
  <path
    d="M10.9254 14.1172H5.8954C5.71528 14.1172 5.56592 14.2698 5.56592 14.4539C5.56592 14.6379 5.71528 14.7905 5.8954 14.7905H10.9254C11.1056 14.7905 11.2549 14.6379 11.2549 14.4539C11.2549 14.2698 11.11 14.1172 10.9254 14.1172Z"
    fill="#2F92F6" />
</svg>
