<svg width="18" height="18" viewBox="0 0 18 18" fill="none" xmlns="http://www.w3.org/2000/svg">
  <path
    d="M9.37158 10.197C8.69911 10.1939 8.03102 10.0885 7.39023 9.88456C6.36638 9.54203 5.60591 8.67525 5.39949 7.61554C5.17362 6.52759 5.58525 5.37724 6.5286 4.45954C6.62982 4.36096 6.735 4.26653 6.84414 4.17625C7.81003 3.36761 9.11223 3.08659 10.3256 3.42493C11.5004 3.79987 12.3121 4.87343 12.3527 6.10588C12.3967 6.8153 12.1654 7.51437 11.7071 8.05765C11.3536 8.50293 10.7809 8.71325 10.2232 8.60257C9.99515 8.55524 9.79617 8.41713 9.67209 8.22001C9.56075 8.02854 9.53219 7.79998 9.59301 7.58701C9.85535 6.59533 10.1221 5.08828 10.1247 5.07301C10.1434 4.96743 10.2169 4.87982 10.3176 4.84317C10.4184 4.80652 10.531 4.8264 10.6131 4.89533C10.6953 4.96425 10.7344 5.07174 10.7157 5.17732C10.7046 5.24002 10.4419 6.72448 10.1731 7.74037C10.154 7.79666 10.1588 7.85837 10.1865 7.91101C10.2279 7.96841 10.2905 8.00698 10.3605 8.01823C10.7018 8.0752 11.0467 7.93825 11.2559 7.66258C11.6119 7.23677 11.7902 6.69029 11.7539 6.13651C11.7246 5.1555 11.0813 4.29903 10.1473 3.99751C9.12782 3.71709 8.03563 3.95665 7.22709 4.63801C7.1307 4.71802 7.03695 4.80178 6.94701 4.88938C6.48063 5.34304 5.73588 6.28438 5.98683 7.49338C6.15544 8.33802 6.75869 9.03024 7.57236 9.31273C8.97936 9.76156 11.0011 9.81559 12.0664 8.49109C12.171 8.36504 12.3574 8.34627 12.4851 8.44891C12.6128 8.55156 12.6345 8.73766 12.5339 8.86696C11.7462 9.84655 10.5475 10.197 9.37158 10.197Z"
    fill="#2F92F6" />
  <path
    d="M8.34441 8.64157C8.0273 8.64702 7.718 8.54303 7.46859 8.34712C6.89277 7.88629 6.87693 7.08574 7.03836 6.54055C7.09273 6.35899 7.16573 6.18353 7.25619 6.01699C7.48129 5.56282 7.84121 5.1893 8.28672 4.94752C8.84153 4.65964 9.51938 4.76881 9.95574 5.21632C10.1722 5.45357 10.3353 5.7345 10.4339 6.04015C10.4862 6.19526 10.4045 6.36361 10.2503 6.41852C10.0961 6.47343 9.92636 6.39463 9.8688 6.24142C9.79768 6.01561 9.67945 5.80746 9.52194 5.63071C9.26753 5.37054 8.87112 5.31134 8.5518 5.48584C8.21769 5.67426 7.94919 5.96034 7.7823 6.30571C7.71217 6.43511 7.65552 6.57138 7.61325 6.71236C7.49667 7.10671 7.52229 7.62136 7.84398 7.87897C8.19567 8.16139 8.78898 8.04199 9.12279 7.75402C9.37156 7.53006 9.58531 7.27003 9.7569 6.98263C9.81247 6.88952 9.91395 6.83365 10.0223 6.83647C10.1307 6.8393 10.2292 6.9004 10.2798 6.99628C10.3304 7.09216 10.3254 7.2079 10.2666 7.29901C10.0634 7.63767 9.81033 7.94382 9.516 8.2072C9.18796 8.48399 8.7736 8.63761 8.34441 8.64157Z"
    fill="#2F92F6" />
  <path
    d="M17.1 18H0.9C0.40317 17.9995 0.000545613 17.5968 0 17.1V6.00001C4.716e-06 5.88367 0.067265 5.77783 0.172585 5.72842C0.277905 5.67901 0.402295 5.69494 0.49176 5.76931L7.85289 11.8871C8.51894 12.4371 9.48171 12.437 10.1476 11.8866L17.508 5.76931C17.5975 5.69479 17.722 5.67877 17.8274 5.7282C17.9328 5.77762 18.0001 5.88358 18 6.00001V17.1C17.9995 17.5968 17.5968 17.9995 17.1 18ZM0.6 6.6394V17.1C0.600215 17.2656 0.734404 17.3998 0.9 17.4H17.1C17.2656 17.3999 17.3999 17.2656 17.4 17.1V6.6394L10.5306 12.3484C9.64244 13.0824 8.35823 13.0826 7.46982 12.3489L0.6 6.6394Z"
    fill="#2F92F6" />
  <path
    d="M0.300294 6.3C0.169623 6.30012 0.0539052 6.21565 0.0142034 6.09115C-0.0254983 5.96666 0.019949 5.83079 0.126564 5.75523L2.82656 3.84124C2.96174 3.74755 3.14715 3.78017 3.24224 3.91437C3.33732 4.04857 3.30663 4.2343 3.17342 4.33078L0.473424 6.24477C0.422866 6.28075 0.362345 6.30006 0.300294 6.3Z"
    fill="#2F92F6" />
  <path
    d="M17.6996 6.3C17.6375 6.30006 17.577 6.28075 17.5264 6.24477L14.8264 4.33078C14.6932 4.2343 14.6625 4.04857 14.7576 3.91437C14.8527 3.78017 15.0381 3.74755 15.1733 3.84124L17.8733 5.75523C17.9799 5.83079 18.0254 5.96666 17.9857 6.09115C17.946 6.21565 17.8302 6.30012 17.6996 6.3Z"
    fill="#2F92F6" />
  <path
    d="M11.7717 2.1C11.7096 2.10004 11.649 2.08073 11.5984 2.04477L10.1644 1.02777C9.49874 0.465268 8.52602 0.459408 7.85363 1.01385L6.40163 2.0448C6.31418 2.10682 6.20029 2.11747 6.10287 2.07274C6.00544 2.02802 5.93927 1.93471 5.92929 1.82797C5.9193 1.72123 5.96702 1.61728 6.05447 1.55526L7.48847 0.538262C8.37455 -0.186248 9.65001 -0.180485 10.5295 0.552002L11.9455 1.55514C12.0522 1.63068 12.0977 1.76661 12.058 1.89117C12.0183 2.01572 11.9025 2.1002 11.7717 2.1Z"
    fill="#2F92F6" />
  <path
    d="M0.495101 17.838C0.368672 17.8381 0.255743 17.7589 0.212733 17.6401C0.169723 17.5212 0.205864 17.3881 0.303101 17.3073L7.1491 11.6193C7.23136 11.5493 7.34487 11.529 7.44631 11.566C7.54775 11.603 7.62146 11.6917 7.63931 11.7982C7.65716 11.9047 7.61641 12.0126 7.53259 12.0807L0.686591 17.7687C0.632842 17.8135 0.565078 17.838 0.495101 17.838Z"
    fill="#2F92F6" />
  <path
    d="M17.5046 17.838C17.4347 17.838 17.367 17.8135 17.3133 17.7687L10.4673 12.0807C10.3835 12.0126 10.3427 11.9047 10.3606 11.7982C10.3784 11.6917 10.4521 11.6031 10.5536 11.566C10.655 11.529 10.7685 11.5493 10.8508 11.6193L17.6966 17.3073C17.7938 17.3881 17.83 17.5212 17.787 17.6401C17.744 17.759 17.631 17.8381 17.5046 17.838V17.838Z"
    fill="#2F92F6" />
  <path
    d="M15 8.544C14.8343 8.544 14.7 8.40968 14.7 8.244V2.10234C14.6991 2.10864 14.687 2.10015 14.667 2.1H3.33295C3.31969 2.09918 3.30668 2.10385 3.29695 2.1129L3.29995 8.244C3.29995 8.40968 3.16564 8.544 2.99995 8.544C2.83427 8.544 2.69995 8.40968 2.69995 8.244V2.1C2.70963 1.75977 2.99269 1.49147 3.33295 1.5H14.667C15.0072 1.4915 15.2902 1.75978 15.3 2.1V8.244C15.3 8.40968 15.1656 8.544 15 8.544Z"
    fill="#2F92F6" />
</svg>
