<svg width="130" height="115" viewBox="0 0 130 115" fill="none" xmlns="http://www.w3.org/2000/svg">
<g opacity="0.1">
<path d="M130 49.4882C129.992 43.0707 127.913 36.8242 124.067 31.662C120.222 26.4999 114.811 22.693 108.627 20.798V8.87308C108.624 6.53225 107.685 4.28809 106.016 2.63286C104.346 0.977641 102.083 0.0465051 99.7217 0.0437012H32.041C29.68 0.0465051 27.4165 0.977641 25.747 2.63286C24.0776 4.28809 23.1384 6.53225 23.1356 8.87308V90.1034C23.1384 92.4442 24.0776 94.6884 25.747 96.3436C27.4165 97.9988 29.68 98.93 32.041 98.9328H33.822V100.699C33.822 102.104 34.385 103.451 35.387 104.445C36.3891 105.438 37.7481 105.996 39.1653 105.996H40.9463C42.3634 105.996 43.7225 105.438 44.7246 104.445C45.7266 103.451 46.2895 102.104 46.2895 100.699V98.9328H85.4732V100.699C85.4732 102.104 86.0361 103.451 87.0382 104.445C88.0402 105.438 89.3993 105.996 90.8164 105.996H92.5975C94.0146 105.996 95.3736 105.438 96.3757 104.445C97.3777 103.451 97.9407 102.104 97.9407 100.699V98.9328H99.7217C102.083 98.93 104.346 97.9988 106.016 96.3436C107.685 94.6884 108.624 92.4442 108.627 90.1034V78.1785C114.811 76.2835 120.222 72.4766 124.067 67.3145C127.913 62.1523 129.992 55.9058 130 49.4882ZM42.7274 100.699C42.7274 101.167 42.5397 101.616 42.2057 101.947C41.8717 102.279 41.4187 102.465 40.9463 102.465H39.1653C38.6929 102.465 38.2399 102.279 37.9058 101.947C37.5718 101.616 37.3842 101.167 37.3842 100.699V98.9328H42.7274V100.699ZM94.3785 100.699C94.3785 101.167 94.1909 101.616 93.8569 101.947C93.5229 102.279 93.0698 102.465 92.5975 102.465H90.8164C90.344 102.465 89.891 102.279 89.557 101.947C89.223 101.616 89.0353 101.167 89.0353 100.699V98.9328H94.3785V100.699ZM105.065 90.1034C105.065 91.5084 104.502 92.8559 103.5 93.8494C102.498 94.8429 101.139 95.401 99.7217 95.401H32.041C30.6238 95.401 29.2648 94.8429 28.2627 93.8494C27.2607 92.8559 26.6977 91.5084 26.6977 90.1034V8.87308C26.6977 7.46807 27.2607 6.12059 28.2627 5.12709C29.2648 4.1336 30.6238 3.57545 32.041 3.57545H99.7217C101.139 3.57545 102.498 4.1336 103.5 5.12709C104.502 6.12059 105.065 7.46807 105.065 8.87308V19.9646C103.887 19.7589 102.697 19.6233 101.503 19.5584V8.87308C101.503 8.40475 101.315 7.95559 100.981 7.62442C100.647 7.29326 100.194 7.10721 99.7217 7.10721H35.6031C35.1307 7.10721 34.6777 7.29326 34.3437 7.62442C34.0097 7.95559 33.822 8.40475 33.822 8.87308V21.2342C32.4049 21.2342 31.0459 21.7924 30.0438 22.7859C29.0418 23.7794 28.4788 25.1268 28.4788 26.5319V37.1271C28.4788 38.5321 29.0418 39.8796 30.0438 40.8731C31.0459 41.8666 32.4049 42.4247 33.822 42.4247V56.5518C32.4049 56.5518 31.0459 57.1099 30.0438 58.1034C29.0418 59.0969 28.4788 60.4444 28.4788 61.8494V72.4446C28.4788 73.8497 29.0418 75.1971 30.0438 76.1906C31.0459 77.1841 32.4049 77.7423 33.822 77.7423V90.1034C33.822 90.5717 34.0097 91.0209 34.3437 91.3521C34.6777 91.6832 35.1307 91.8693 35.6031 91.8693H99.7217C100.194 91.8693 100.647 91.6832 100.981 91.3521C101.315 91.0209 101.503 90.5717 101.503 90.1034V79.4181C102.697 79.3532 103.887 79.2176 105.065 79.0119V90.1034ZM87.2542 22.1631V17.7025C87.2542 17.2341 87.0666 16.785 86.7326 16.4538C86.3986 16.1226 85.9455 15.9366 85.4732 15.9366H49.8517C49.3793 15.9366 48.9263 16.1226 48.5923 16.4538C48.2583 16.785 48.0706 17.2341 48.0706 17.7025V35.3612C48.0706 35.8296 48.2583 36.2787 48.5923 36.6099C48.9263 36.9411 49.3793 37.1271 49.8517 37.1271H72.1614C69.5726 42.7077 68.8091 48.9514 69.9778 54.9837C69.2126 54.8561 68.4383 54.79 67.6624 54.7859C63.898 54.7838 60.2868 56.2637 57.6225 58.9004C57.6118 58.911 57.5976 58.9127 57.5869 58.9233C57.5762 58.9339 57.5744 58.948 57.5637 58.9586C54.9062 61.6014 53.414 65.1811 53.414 68.9129C53.414 72.6447 54.9062 76.2243 57.5637 78.8671C57.5744 78.8777 57.5762 78.8919 57.5869 78.9025C57.5976 78.9131 57.6118 78.9148 57.6225 78.9254C60.2672 81.5466 63.8494 83.0253 67.5888 83.0396C71.3282 83.0538 74.9217 81.6023 77.5866 79.0013C77.6388 78.9711 77.6893 78.9381 77.738 78.9025C77.7757 78.8529 77.8102 78.801 77.8413 78.7471C79.3888 77.1835 80.5475 75.2837 81.2253 73.1987C86.0335 76.9018 91.8623 79.0706 97.9407 79.4181V88.3375H37.3842V77.7423C38.8013 77.7423 40.1604 77.1841 41.1624 76.1906C42.1645 75.1971 42.7274 73.8497 42.7274 72.4446V61.8494C42.7274 60.4444 42.1645 59.0969 41.1624 58.1034C40.1604 57.1099 38.8013 56.5518 37.3842 56.5518V42.4247C38.8013 42.4247 40.1604 41.8666 41.1624 40.8731C42.1645 39.8796 42.7274 38.5321 42.7274 37.1271V26.5319C42.7274 25.1268 42.1645 23.7794 41.1624 22.7859C40.1604 21.7924 38.8013 21.2342 37.3842 21.2342V10.639H97.9407V19.5584C94.247 19.7656 90.6238 20.6487 87.2542 22.1631ZM74.0743 33.5954H51.6328V19.4683H83.6921V24.0596C79.8021 26.4787 76.5142 29.7386 74.0743 33.5954ZM76.3416 75.0264L75.2124 73.9086C74.8765 73.5869 74.4266 73.4089 73.9596 73.4129C73.4926 73.4169 73.0459 73.6027 72.7157 73.9301C72.3854 74.2575 72.1981 74.7004 72.1941 75.1634C72.19 75.6264 72.3695 76.0725 72.694 76.4055L73.8089 77.5109C72.5104 78.4357 71.0182 79.058 69.4435 79.3316V77.7423C69.4435 77.2739 69.2559 76.8248 68.9218 76.4936C68.5878 76.1624 68.1348 75.9764 67.6624 75.9764C67.1901 75.9764 66.737 76.1624 66.403 76.4936C66.069 76.8248 65.8814 77.2739 65.8814 77.7423V79.3492C64.295 79.0841 62.7902 78.4652 61.4803 77.5392L62.6238 76.4055C62.9482 76.0725 63.1277 75.6264 63.1237 75.1634C63.1196 74.7004 62.9323 74.2575 62.6021 73.9301C62.2719 73.6027 61.8251 73.4169 61.3581 73.4129C60.8911 73.4089 60.4412 73.5869 60.1053 73.9086L58.9619 75.0423C58.0279 73.7436 57.4037 72.2516 57.1363 70.6788H58.7571C59.2294 70.6788 59.6825 70.4927 60.0165 70.1616C60.3505 69.8304 60.5381 69.3812 60.5381 68.9129C60.5381 68.4445 60.3505 67.9954 60.0165 67.6642C59.6825 67.3331 59.2294 67.147 58.7571 67.147H57.1363C57.4037 65.5742 58.0279 64.0822 58.9619 62.7835L60.1053 63.9172C60.4412 64.2389 60.8911 64.4169 61.3581 64.4129C61.8251 64.4088 62.2719 64.2231 62.6021 63.8957C62.9323 63.5683 63.1196 63.1254 63.1237 62.6624C63.1277 62.1994 62.9482 61.7533 62.6238 61.4203L61.4803 60.2866C62.7902 59.3606 64.295 58.7417 65.8814 58.4766V60.0835C65.8814 60.5518 66.069 61.001 66.403 61.3322C66.737 61.6633 67.1901 61.8494 67.6624 61.8494C68.1348 61.8494 68.5878 61.6633 68.9218 61.3322C69.2559 61.001 69.4435 60.5518 69.4435 60.0835V58.4942C69.9674 58.5876 70.4831 58.7217 70.9859 58.8951C72.4458 63.2754 74.9037 67.2634 78.169 70.5499C77.9245 72.1628 77.3009 73.6963 76.3487 75.0264H76.3416ZM37.3842 60.0835C37.8565 60.0835 38.3096 60.2696 38.6436 60.6007C38.9776 60.9319 39.1653 61.381 39.1653 61.8494V72.4446C39.1653 72.913 38.9776 73.3621 38.6436 73.6933C38.3096 74.0245 37.8565 74.2105 37.3842 74.2105H33.822C33.3497 74.2105 32.8966 74.0245 32.5626 73.6933C32.2286 73.3621 32.041 72.913 32.041 72.4446V61.8494C32.041 61.381 32.2286 60.9319 32.5626 60.6007C32.8966 60.2696 33.3497 60.0835 33.822 60.0835H37.3842ZM37.3842 24.766C37.8565 24.766 38.3096 24.952 38.6436 25.2832C38.9776 25.6144 39.1653 26.0635 39.1653 26.5319V37.1271C39.1653 37.5955 38.9776 38.0446 38.6436 38.3758C38.3096 38.7069 37.8565 38.893 37.3842 38.893H33.822C33.3497 38.893 32.8966 38.7069 32.5626 38.3758C32.2286 38.0446 32.041 37.5955 32.041 37.1271V26.5319C32.041 26.0635 32.2286 25.6144 32.5626 25.2832C32.8966 24.952 33.3497 24.766 33.822 24.766H37.3842ZM99.7217 75.9764C94.4378 75.9764 89.2725 74.4229 84.8791 71.5123C80.4856 68.6018 77.0614 64.4649 75.0393 59.6248C73.0172 54.7847 72.4881 49.4589 73.519 44.3207C74.5498 39.1825 77.0943 34.4627 80.8306 30.7583C84.5669 27.0539 89.3273 24.5311 94.5097 23.5091C99.6921 22.487 105.064 23.0116 109.946 25.0164C114.827 27.0212 119 30.4163 121.935 34.7722C124.871 39.1282 126.438 44.2494 126.438 49.4882C126.43 56.5109 123.613 63.2436 118.604 68.2094C113.596 73.1752 106.805 75.9685 99.7217 75.9764Z" fill="#2F80ED"/>
<path d="M99.7218 25.7041C95.1424 25.7041 90.6658 27.0505 86.8581 29.573C83.0505 32.0954 80.0828 35.6807 78.3303 39.8755C76.5778 44.0702 76.1193 48.686 77.0127 53.1391C77.9061 57.5922 80.1113 61.6826 83.3495 64.8931C86.5876 68.1036 90.7132 70.29 95.2047 71.1758C99.6961 72.0616 104.352 71.6069 108.582 69.8694C112.813 68.1319 116.429 65.1895 118.974 61.4144C121.518 57.6392 122.876 53.2008 122.876 48.6605C122.869 42.5742 120.427 36.7393 116.086 32.4356C111.746 28.132 105.86 25.7111 99.7218 25.7041ZM99.7218 68.0851C95.8469 68.0851 92.059 66.9459 88.8372 64.8115C85.6153 62.6771 83.1042 59.6434 81.6213 56.094C80.1384 52.5446 79.7505 48.6389 80.5064 44.8709C81.2624 41.1029 83.1283 37.6418 85.8683 34.9252C88.6082 32.2086 92.0992 30.3586 95.8996 29.6091C99.7 28.8596 103.639 29.2443 107.219 30.7145C110.799 32.1847 113.859 34.6744 116.012 37.8687C118.165 41.0631 119.314 44.8187 119.314 48.6605C119.307 53.8104 117.241 58.7476 113.569 62.3891C109.896 66.0306 104.916 68.0791 99.7218 68.0851Z" fill="#2F80ED"/>
<path d="M107.401 47.3168C108.041 46.3823 108.445 45.3088 108.578 44.187C108.711 43.0653 108.569 41.9283 108.165 40.8722C107.761 39.8161 107.107 38.8719 106.257 38.1197C105.407 37.3674 104.388 36.829 103.284 36.5502V32.7677H99.7214V36.2995H97.9403V32.7677H94.3782V36.2995H89.035V39.8312H90.816V57.49H89.035V61.0217H94.3782V64.5535H97.9403V61.0217H99.7214V64.5535H103.284V61.0217H105.065C106.747 61.0252 108.375 60.4371 109.661 59.362C110.947 58.2869 111.806 56.7946 112.087 55.1503C112.367 53.5061 112.05 51.8165 111.192 50.3822C110.334 48.9478 108.991 47.8616 107.401 47.3168ZM94.3782 39.8312H101.502C102.447 39.8312 103.353 40.2033 104.021 40.8656C104.689 41.528 105.065 42.4263 105.065 43.363C105.065 44.2996 104.689 45.198 104.021 45.8603C103.353 46.5226 102.447 46.8947 101.502 46.8947H94.3782V39.8312ZM105.065 57.49H94.3782V50.4265H105.065C106.009 50.4265 106.915 50.7986 107.583 51.4609C108.251 52.1232 108.627 53.0215 108.627 53.9582C108.627 54.8949 108.251 55.7932 107.583 56.4555C106.915 57.1179 106.009 57.49 105.065 57.49Z" fill="#2F80ED"/>
<path d="M67.6621 62.7875C66.6053 62.7875 65.5723 63.0982 64.6936 63.6803C63.8149 64.2624 63.13 65.0898 62.7256 66.0578C62.3212 67.0258 62.2154 68.091 62.4215 69.1186C62.6277 70.1463 63.1366 71.0902 63.8839 71.8311C64.6311 72.572 65.5832 73.0765 66.6197 73.2809C67.6562 73.4854 68.7305 73.3804 69.7069 72.9795C70.6832 72.5785 71.5177 71.8995 72.1048 71.0283C72.6919 70.1571 73.0053 69.1329 73.0053 68.0851C73.0053 66.6801 72.4424 65.3326 71.4403 64.3391C70.4383 63.3456 69.0792 62.7875 67.6621 62.7875ZM67.6621 69.851C67.3098 69.851 66.9655 69.7474 66.6726 69.5534C66.3797 69.3593 66.1514 69.0835 66.0166 68.7609C65.8818 68.4382 65.8465 68.0831 65.9153 67.7406C65.984 67.3981 66.1536 67.0834 66.4027 66.8364C66.6518 66.5895 66.9691 66.4213 67.3146 66.3532C67.6601 66.285 68.0182 66.32 68.3437 66.4537C68.6691 66.5873 68.9473 66.8136 69.143 67.104C69.3387 67.3944 69.4432 67.7358 69.4432 68.0851C69.4432 68.5534 69.2555 69.0026 68.9215 69.3338C68.5875 69.6649 68.1345 69.851 67.6621 69.851Z" fill="#2F80ED"/>
<path d="M125.903 110.365H1.89331C0.847664 110.365 0 111.213 0 112.259C0 113.304 0.847665 114.152 1.89331 114.152H125.903C126.949 114.152 127.797 113.304 127.797 112.259C127.797 111.213 126.949 110.365 125.903 110.365Z" fill="#2F80ED"/>
</g>
</svg>
