<svg width="115" height="115" viewBox="0 0 115 115" fill="none" xmlns="http://www.w3.org/2000/svg">
<g opacity="0.1">
<path d="M36.9641 8.34167C27.7586 8.34167 20.2706 15.7658 20.2706 24.8928V34.0879C20.2706 36.1163 21.9344 37.7659 23.9803 37.7659H25.8351C28.903 37.7659 31.3996 35.2906 31.3996 32.2488V28.5708C31.3996 25.5291 28.903 23.0538 25.8351 23.0538H24.112C25.0153 16.8232 30.4333 12.0197 36.9641 12.0197C43.4913 12.0197 48.8945 16.8269 49.7996 23.0538H48.0932C45.0253 23.0538 42.5287 25.5291 42.5287 28.5708V32.2488C42.5287 35.2906 45.0253 37.7659 48.0932 37.7659H49.948V41.4439C49.948 43.4723 48.2842 45.1219 46.2383 45.1219H42.2115C42.4155 44.5482 42.5287 43.9284 42.5287 43.2829C42.5287 40.2412 40.032 37.7659 36.9641 37.7659C33.8962 37.7659 31.3996 40.2412 31.3996 43.2829C31.3996 46.3246 33.8962 48.7999 36.9641 48.7999H46.2383C50.3301 48.7999 53.6577 45.5008 53.6577 41.4439V24.8928C53.6577 15.7658 46.1697 8.34167 36.9641 8.34167ZM25.8351 26.7318C26.859 26.7318 27.69 27.5557 27.69 28.5708V32.2488C27.69 33.264 26.859 34.0879 25.8351 34.0879H23.9803V26.7318H25.8351ZM36.9641 45.1219C35.9403 45.1219 35.1093 44.298 35.1093 43.2829C35.1093 42.2678 35.9403 41.4439 36.9641 41.4439C37.988 41.4439 38.819 42.2678 38.819 43.2829C38.819 44.298 37.988 45.1219 36.9641 45.1219ZM48.0932 34.0879C47.0693 34.0879 46.2383 33.264 46.2383 32.2488V28.5708C46.2383 27.5557 47.0693 26.7318 48.0932 26.7318H49.948V34.0879H48.0932Z" fill="#2F80ED"/>
<path d="M115 49.8768C115 46.8351 112.503 44.3598 109.435 44.3598H74.1936V13.0966C74.1936 5.99985 68.3675 0.223511 61.2097 0.223511H12.9839C5.82605 0.223511 0 5.99985 0 13.0966V42.5208C0 49.6175 5.82605 55.3939 12.9839 55.3939H25.9677V108.725C25.9677 111.767 28.4644 114.242 31.5323 114.242H109.435C110.292 114.242 111.094 114.034 111.819 113.689L111.834 113.703L111.882 113.656C112.98 113.117 113.867 112.238 114.408 111.151L114.457 111.103L114.442 111.088C114.79 110.369 115 109.575 115 108.725V49.8768ZM74.1936 60.6093V48.0378H108.508L75.6014 79.1098C72.8302 81.7285 68.1394 81.7285 65.3664 79.1098L40.25 55.3939H54.5675L59.7629 64.4087C61.1373 66.7884 63.7063 68.267 66.47 68.267C70.7287 68.267 74.1936 64.8317 74.1936 60.6093ZM3.70968 42.5208V13.0966C3.70968 8.02644 7.87008 3.90154 12.9839 3.90154H61.2097C66.3235 3.90154 70.4839 8.02644 70.4839 13.0966V60.6093C70.4839 62.8033 68.6828 64.5889 66.47 64.5889C65.0344 64.5889 63.6989 63.8202 62.9848 62.5844L56.721 51.7159H12.9839C7.87008 51.7159 3.70968 47.591 3.70968 42.5208ZM34.871 55.3939L59.3678 78.5268L29.6774 107.964V55.3939H34.871ZM32.3002 110.564L62.0555 81.0628L62.8104 81.7745C64.8878 83.7367 67.6144 84.8181 70.4839 84.8181C73.3533 84.8181 76.0799 83.7367 78.1592 81.7764L78.9141 81.0647L108.668 110.564H32.3002ZM81.5999 78.5268L111.29 50.4874V107.964L81.5999 78.5268Z" fill="#2F80ED"/>
<path d="M58.2422 102.131C58.2422 101.116 59.0814 100.292 60.097 100.292C61.1127 100.292 61.9518 101.116 61.9518 102.131C61.9518 103.147 61.1127 103.97 60.097 103.97C59.0814 103.97 58.2422 103.147 58.2422 102.131Z" fill="#2F80ED"/>
<path d="M69.3712 102.131C69.3712 101.116 70.2104 100.292 71.226 100.292C72.2417 100.292 73.0809 101.116 73.0809 102.131C73.0809 103.147 72.2417 103.97 71.226 103.97C70.2104 103.97 69.3712 103.147 69.3712 102.131Z" fill="#2F80ED"/>
<path d="M80.5002 102.131C80.5002 101.116 81.3394 100.292 82.3551 100.292C83.3707 100.292 84.2099 101.116 84.2099 102.131C84.2099 103.147 83.3707 103.97 82.3551 103.97C81.3394 103.97 80.5002 103.147 80.5002 102.131Z" fill="#2F80ED"/>
</g>
</svg>
