<svg width="120" height="115" viewBox="0 0 120 115" fill="none" xmlns="http://www.w3.org/2000/svg">
<g opacity="0.1">
<path d="M119.769 63.2149C118.695 52.498 113.866 42.3946 106.171 34.7656C99.5956 28.2464 91.5473 24.0571 83.0787 22.1943V16.3053C86.5376 15.4521 89.1086 12.3479 89.1086 8.65826C89.1086 4.3129 85.5431 0.777832 81.1603 0.777832H64.3288C59.946 0.777832 56.3805 4.3129 56.3805 8.65826C56.3805 12.3477 58.9515 15.4519 62.4102 16.3053V22.2107C53.9675 24.0814 45.9459 28.265 39.389 34.7659C37.9541 36.1885 36.631 37.6809 35.4198 39.232C35.3611 39.2276 35.3025 39.2232 35.2426 39.2232H18.5838C17.2929 39.2232 16.2461 40.2609 16.2461 41.541C16.2461 42.8211 17.2929 43.8587 18.5838 43.8587H32.2389C30.5249 46.7038 29.1428 49.6916 28.0908 52.7673H2.64827C1.35738 52.7673 0.310547 53.805 0.310547 55.0851C0.310547 56.3652 1.35738 57.4029 2.64827 57.4029H26.7698C26.0961 60.3351 25.7094 63.3192 25.6096 66.3117H15.272C13.9811 66.3117 12.9342 67.3494 12.9342 68.6295C12.9342 69.9096 13.9811 70.9472 15.272 70.9472H25.6842C25.8815 73.9474 26.3679 76.9317 27.1438 79.8561H11.9991C10.7083 79.8561 9.66142 80.8937 9.66142 82.1738C9.66142 83.4539 10.7083 84.4916 11.9991 84.4916H28.6358C30.9291 90.5065 34.513 96.144 39.389 100.978C47.0909 108.615 57.2918 113.403 68.1121 114.463C69.6564 114.615 71.2019 114.689 72.7453 114.689C81.8675 114.689 90.8738 112.072 98.5158 107.138C99.5977 106.439 99.9037 105.003 99.1991 103.931C98.4945 102.858 97.0463 102.555 95.9644 103.253C79.2364 114.053 56.8333 111.718 42.695 97.7006C26.1061 81.2532 26.1061 54.4915 42.695 38.0439C59.2837 21.5968 86.2757 21.5968 102.865 38.0439C116.984 52.0433 119.353 74.2362 108.496 90.8133C107.792 91.8869 108.1 93.3225 109.183 94.0195C110.266 94.7167 111.714 94.4114 112.417 93.3378C118.217 84.4805 120.829 73.7828 119.769 63.2149ZM61.056 8.65849C61.056 6.86917 62.524 5.41361 64.3288 5.41361H81.1603C82.9651 5.41361 84.4332 6.86917 84.4332 8.65849C84.4332 10.4478 82.9651 11.9034 81.1603 11.9034H80.741H64.7479H64.3288C62.524 11.9034 61.056 10.4476 61.056 8.65849ZM67.0856 21.4139V16.5389H78.4032V21.4055C74.6451 20.9624 70.843 20.9652 67.0856 21.4139Z" fill="#2F80ED"/>
<path d="M104.208 97.0205C103.591 97.0205 102.99 97.2685 102.556 97.6996C102.119 98.1307 101.871 98.7287 101.871 99.3382C101.871 99.9478 102.119 100.546 102.556 100.977C102.99 101.41 103.591 101.656 104.208 101.656C104.823 101.656 105.424 101.41 105.861 100.977C106.296 100.546 106.546 99.9478 106.546 99.3382C106.546 98.7287 106.296 98.1307 105.861 97.6996C105.424 97.2685 104.823 97.0205 104.208 97.0205Z" fill="#2F80ED"/>
<path d="M72.4697 31.9164C52.4733 31.9164 36.2048 48.0458 36.2048 67.8717C36.2048 87.6977 52.4733 103.827 72.4697 103.827C92.466 103.827 108.734 87.6977 108.734 67.8717C108.734 48.0458 92.466 31.9164 72.4697 31.9164ZM72.4697 99.1916C55.0511 99.1916 40.8803 85.1415 40.8803 67.8717C40.8803 50.602 55.0511 36.5519 72.4697 36.5519C89.8882 36.5519 104.059 50.602 104.059 67.8717C104.059 85.1415 89.8882 99.1916 72.4697 99.1916Z" fill="#2F80ED"/>
<path d="M87.2568 49.9327L75.6781 61.4124C74.7098 60.9377 73.6207 60.6696 72.4693 60.6696C71.3178 60.6696 70.2289 60.9377 69.2606 61.4124L64.0786 56.2746C63.1655 55.3695 61.6857 55.3695 60.7723 56.2746C59.8595 57.1797 59.8595 58.6473 60.7723 59.5524L65.9544 64.6902C65.4754 65.6502 65.2051 66.7301 65.2051 67.8716C65.2051 71.8429 68.4637 75.0738 72.4693 75.0738C76.475 75.0738 79.7336 71.8429 79.7336 67.8716C79.7336 66.7301 79.4631 65.6502 78.9843 64.6902L90.2232 53.5473L90.5628 53.2105C91.4757 52.3054 91.4757 50.8378 90.5628 49.9327C89.6499 49.0276 88.1702 49.0276 87.2568 49.9327ZM72.4693 70.4385C71.0419 70.4385 69.8806 69.2871 69.8806 67.8718C69.8806 66.4566 71.0419 65.3051 72.4693 65.3051C73.8968 65.3051 75.0581 66.4566 75.0581 67.8718C75.0581 69.2871 73.8968 70.4385 72.4693 70.4385Z" fill="#2F80ED"/>
<path d="M97.464 65.5824H95.2981C94.0073 65.5824 92.9604 66.62 92.9604 67.9001C92.9604 69.1802 94.0073 70.2179 95.2981 70.2179H97.464C98.7549 70.2179 99.8017 69.1802 99.8017 67.9001C99.8017 66.62 98.7549 65.5824 97.464 65.5824Z" fill="#2F80ED"/>
<path d="M49.6405 65.5258H47.4748C46.184 65.5258 45.1371 66.5634 45.1371 67.8435C45.1371 69.1236 46.184 70.1612 47.4748 70.1612H49.6405C50.9313 70.1612 51.9781 69.1236 51.9781 67.8435C51.9781 66.5634 50.9313 65.5258 49.6405 65.5258Z" fill="#2F80ED"/>
<path d="M72.4981 47.5553C73.789 47.5553 74.8358 46.5177 74.8358 45.2376V43.0904C74.8358 41.8104 73.789 40.7727 72.4981 40.7727C71.2072 40.7727 70.1604 41.8104 70.1604 43.0904V45.2376C70.1604 46.5177 71.2072 47.5553 72.4981 47.5553Z" fill="#2F80ED"/>
<path d="M72.4412 88.1882C71.1503 88.1882 70.1035 89.2259 70.1035 90.506V92.6531C70.1035 93.9332 71.1503 94.9709 72.4412 94.9709C73.7321 94.9709 74.7789 93.9332 74.7789 92.6531V90.506C74.7789 89.2259 73.7321 88.1882 72.4412 88.1882Z" fill="#2F80ED"/>
<path d="M2.33768 79.8552C1.72287 79.8552 1.11975 80.1032 0.684941 80.5343C0.250132 80.9654 0 81.5634 0 82.173C0 82.7848 0.249898 83.3805 0.684941 83.8116C1.11998 84.2427 1.72287 84.4907 2.33768 84.4907C2.95249 84.4907 3.55562 84.2427 3.99019 83.8116C4.425 83.3805 4.67537 82.7825 4.67537 82.173C4.67537 81.5634 4.42523 80.9654 3.99019 80.5343C3.55562 80.1032 2.95249 79.8552 2.33768 79.8552Z" fill="#2F80ED"/>
</g>
</svg>
