<svg width="18" height="18" viewBox="0 0 18 18" fill="none" xmlns="http://www.w3.org/2000/svg">
  <path
    d="M12.1641 11.2148C11.9699 11.2148 11.8125 11.3722 11.8125 11.5664V13.9922C11.8125 14.9614 11.0239 15.75 10.0547 15.75H6.25894C6.06484 15.75 5.90752 15.9073 5.90737 16.1013L5.90688 16.8003L5.06777 15.9612C5.01346 15.8365 4.88914 15.75 4.74536 15.75H2.46094C1.49168 15.75 0.703125 14.9614 0.703125 13.9922V8.57812C0.703125 7.60887 1.49168 6.82031 2.46094 6.82031H6.01172C6.20585 6.82031 6.36328 6.66292 6.36328 6.46875C6.36328 6.27458 6.20585 6.11719 6.01172 6.11719H2.46094C1.10398 6.11719 0 7.22116 0 8.57812V13.9922C0 15.3491 1.10398 16.4531 2.46094 16.4531H4.56532L6.00922 17.897C6.07648 17.9643 6.16637 18 6.25788 18C6.30313 18 6.3488 17.9912 6.39221 17.9733C6.52359 17.9189 6.60927 17.7908 6.60938 17.6487L6.61022 16.4531H10.0547C11.4116 16.4531 12.5156 15.3491 12.5156 13.9922V11.5664C12.5156 11.3722 12.3582 11.2148 12.1641 11.2148Z"
    fill="#2F92F6" />
  <path
    d="M12.8902 0H12.0004C9.18288 0 6.89062 2.29226 6.89062 5.10982C6.89062 7.92738 9.18288 10.2196 12.0004 10.2196H12.8902C13.3299 10.2196 13.7652 10.1637 14.1871 10.0534L15.5015 11.367C15.5687 11.4342 15.6586 11.4699 15.7501 11.4699C15.7954 11.4699 15.8411 11.4611 15.8846 11.4431C16.0159 11.3887 16.1016 11.2605 16.1016 11.1183V9.08434C16.6581 8.63367 17.1203 8.06439 17.4447 7.42841C17.8132 6.70609 18 5.92601 18 5.10982C18 2.29226 15.7077 0 12.8902 0ZM15.5385 8.63209C15.4503 8.6985 15.3984 8.80249 15.3984 8.91292V10.2699L14.5381 9.4101C14.4712 9.34323 14.3814 9.3072 14.2896 9.3072C14.2551 9.3072 14.2203 9.31229 14.1864 9.32273C13.7679 9.45134 13.3318 9.51651 12.8902 9.51651H12.0004C9.57055 9.51651 7.59375 7.53968 7.59375 5.10982C7.59375 2.67996 9.57059 0.703125 12.0004 0.703125H12.8902C15.3201 0.703125 17.2969 2.67996 17.2969 5.10982C17.2969 6.50661 16.656 7.79045 15.5385 8.63209Z"
    fill="#2F92F6" />
  <path
    d="M14.0284 3.84684C13.9776 3.11084 13.3843 2.51755 12.6483 2.46682C12.2311 2.43816 11.8329 2.57889 11.5281 2.86341C11.2275 3.144 11.0552 3.54063 11.0552 3.95164C11.0552 4.14581 11.2126 4.3032 11.4067 4.3032C11.6009 4.3032 11.7583 4.14581 11.7583 3.95164C11.7583 3.7316 11.847 3.52766 12.0079 3.37743C12.1687 3.22735 12.3789 3.15307 12.6 3.16832C12.9877 3.19504 13.3002 3.50755 13.3269 3.89521C13.3539 4.28675 13.0971 4.63276 12.7162 4.71798C12.4076 4.78702 12.1921 5.05519 12.1921 5.37009V6.21472C12.1921 6.40889 12.3495 6.56628 12.5436 6.56628C12.7378 6.56628 12.8952 6.40889 12.8951 6.21472V5.39818C13.6035 5.22704 14.0788 4.57883 14.0284 3.84684Z"
    fill="#2F92F6" />
  <path
    d="M12.7923 7.35679C12.7269 7.2914 12.6362 7.25378 12.5437 7.25378C12.4512 7.25378 12.3605 7.2914 12.2951 7.35679C12.2298 7.42218 12.1921 7.51289 12.1921 7.60535C12.1921 7.69816 12.2298 7.78886 12.2951 7.85425C12.3605 7.91964 12.4512 7.95691 12.5437 7.95691C12.6362 7.95691 12.7269 7.91964 12.7923 7.85425C12.8576 7.78851 12.8953 7.69816 12.8953 7.60535C12.8953 7.51289 12.8576 7.42218 12.7923 7.35679Z"
    fill="#2F92F6" />
  <path
    d="M9.66797 10.8984H2.25C2.05587 10.8984 1.89844 11.0558 1.89844 11.25C1.89844 11.4442 2.05587 11.6016 2.25 11.6016H9.66797C9.86214 11.6016 10.0195 11.4442 10.0195 11.25C10.0195 11.0558 9.8621 10.8984 9.66797 10.8984Z"
    fill="#2F92F6" />
  <path
    d="M9.91649 12.9702C9.85113 12.9048 9.76043 12.8672 9.66797 12.8672C9.57551 12.8672 9.4848 12.9048 9.41941 12.9702C9.35399 13.0356 9.31641 13.1263 9.31641 13.2188C9.31641 13.3112 9.35402 13.4019 9.41941 13.4673C9.4848 13.5327 9.57551 13.5703 9.66797 13.5703C9.76043 13.5703 9.85113 13.5327 9.91649 13.4673C9.98191 13.4019 10.0195 13.3116 10.0195 13.2188C10.0195 13.1263 9.98188 13.0356 9.91649 12.9702Z"
    fill="#2F92F6" />
  <path
    d="M8.28517 12.8672H2.25C2.05587 12.8672 1.89844 13.0246 1.89844 13.2188C1.89844 13.4129 2.05587 13.5703 2.25 13.5703H8.28517C8.47934 13.5703 8.63673 13.4129 8.63673 13.2188C8.63673 13.0246 8.4793 12.8672 8.28517 12.8672Z"
    fill="#2F92F6" />
  <path
    d="M7.38281 8.92969H2.25C2.05587 8.92969 1.89844 9.08708 1.89844 9.28125C1.89844 9.47542 2.05587 9.63281 2.25 9.63281H7.38281C7.57698 9.63281 7.73438 9.47542 7.73438 9.28125C7.73438 9.08708 7.57695 8.92969 7.38281 8.92969Z"
    fill="#2F92F6" />
</svg>
