<svg xmlns="http://www.w3.org/2000/svg" width="1280" height="380" viewBox="0 0 1280 380" fill="none"><g opacity=".25" clip-path="url(#clip0)" stroke="#fff" stroke-miterlimit="10"><path d="M-34.508 105.841c31.591 21.65 67.282 41.338 109.975 52.027 57.845 14.44 133.655 9.42 178.026-24.557 51.22-39.22 79.786-77.117 164.291-85.787 59.653-6.062 131.275 6.667 165.618 39.242 20.369 19.298 32.208 42.338 49.42 63.063 41.086 49.827 107.399 59.148 183.154 28.087 36.217-14.864 77.167-31.915 116.309-24.912 51.325 9.212 72.785 56.083 125.985 60.475 29.11 2.427 57.42-9.019 84.74-17.658 65.12-20.517 94.35 16.433 153.93 8.894 14.9-1.86 28.31-7.993 42.83-11.217 14.99-3.344 44.85-2.037 40.36 12.669"/><path d="M-31.238 117.53C.188 139.089 36.629 157.56 79.42 166.863c30.751 6.693 66.093 8.048 98.88 2.811 28.947-4.668 56.214-14.39 77.095-29.938 38.329-28.672 64.76-56.804 110.252-73.173 15.058-5.42 32.43-9.562 52.776-12.064 58.956-7.215 129.359 3.5 165.555 34.312 21.619 18.453 34.727 41.04 52.421 61.743 9.021 10.639 19.096 19.652 30.216 26.842 39.344 25.639 89.972 26.596 150.772 6.769 19.207-6.298 39.446-14.714 59.774-21.161 26.36-8.398 54.535-12.341 81.329-7.638 48.57 8.745 69.86 51.875 120.16 56.398 27.5 2.501 54.26-7.692 80.17-15.379 61.36-18.273 89.63 15.464 145.84 8.078 14.1-1.823 26.72-7.625 40.43-10.812 14.19-3.21 41.78-2.39 38.18 10.598"/><path d="M-27.974 129.121c31.1 21.475 68.287 38.63 111.185 46.744 30.711 5.808 65.531 6.299 97.813.591 28.447-5.04 55.062-14.93 75.961-30.084 38.047-27.771 65.305-55.447 110.136-72.182 14.889-5.608 31.93-9.933 51.78-12.709 58.264-8.268 127.599.225 165.327 29.291 22.869 17.607 37.246 39.743 55.583 60.416 9.177 10.534 19.252 19.547 30.055 26.85 38.714 25.963 87.476 28.386 148.441 12.202 23.079-6.178 46.792-16.133 70.603-23.922 30.639-9.974 64.114-14.256 95.459-8.675 45.631 8.09 66.921 47.669 114.341 52.323 25.88 2.475 51.1-6.266 75.45-12.994 57.43-15.926 85.07 14.486 137.58 7.268 13.29-1.787 25.13-7.158 38.03-10.309 13.39-3.173 38.87-2.751 35.99 8.527"/><path d="M-24.704 140.811c30.935 21.384 68.867 37.222 111.868 44.05 30.666 4.822 64.968 4.548 96.58-1.721 27.942-5.511 54.071-15.477 74.983-30.336 37.922-26.976 66.006-54.197 110.024-71.091 14.724-5.7 31.434-10.207 50.623-13.347 57.729-9.428 125.679-3.043 165.265 24.361 24.12 16.761 39.92 38.338 58.579 58.997 9.329 10.33 19.248 19.448 30.06 26.948 37.768 26.401 85.649 30.738 146.267 17.529 27.12-5.867 54.133-17.649 81.427-26.781 34.913-11.647 73.536-16.064 109.588-9.808 42.71 7.531 63.99 43.46 108.51 48.246 24.12 2.555 47.95-4.841 70.72-10.61 53.52-13.577 80.36 13.419 129.5 6.453 12.32-1.744 23.53-6.79 35.64-9.806 12.42-3.129 35.78-3.105 33.8 6.456"/><path d="M-21.435 152.501c30.765 21.194 69.292 35.92 112.395 41.46 30.626 3.937 64.566 2.791 95.509-4.04 27.437-5.981 53.074-16.122 74.005-30.587 37.797-26.182 66.551-52.84 109.908-70.1 14.553-5.889 30.933-10.578 49.627-13.992 57.027-10.678 123.919-6.316 165.036 19.34 25.366 15.817 42.44 37.041 61.741 57.671 9.486 10.223 19.405 19.342 30.065 27.046 36.981 26.831 84.166 33.568 143.935 22.962 31.323-5.565 61.64-19.076 92.257-29.541 39.03-13.216 83.12-17.881 123.717-10.845 39.94 6.966 61.06 39.252 102.69 44.17 22.51 2.628 44.79-3.415 66.15-8.331 49.59-11.229 75.8 12.442 121.24 5.643 11.53-1.707 22.1-6.429 33.25-9.401 11.62-3.092 32.7-3.458 31.77 4.378"/><path d="M-18.01 164.084c30.6 21.104 69.873 34.513 113.079 38.766 30.581 2.953 63.998.942 94.28-6.253 26.933-6.451 51.923-16.661 72.871-30.733 37.511-25.379 67.096-51.484 109.636-69.002 14.388-5.98 30.438-10.852 48.626-14.736 56.492-11.838 122.16-9.59 164.97 14.313 26.777 14.963 45.118 35.734 64.741 56.349 9.638 10.02 19.561 19.237 30.069 27.145 36.352 27.156 82.698 36.693 141.766 28.388 35.538-4.968 68.982-20.593 103.086-32.302 43.304-14.889 92.696-19.796 137.836-11.98 37.02 6.409 58.14 35.045 96.71 40.2 20.91 2.701 41.47-2.08 61.43-5.946 45.68-8.88 71.09 11.472 113.15 4.827 10.72-1.67 20.51-5.962 30.85-8.898 10.82-3.056 29.63-3.811 29.59 2.307"/><path d="M-14.74 175.774c30.435 21.012 70.296 33.211 113.766 36.17 30.541 2.066 63.436-.808 93.208-8.572 26.428-6.922 50.927-17.307 71.893-30.985 37.386-24.584 67.801-50.134 109.52-68.01 14.223-6.071 29.938-11.224 47.631-15.381 55.79-13.089 120.4-12.865 164.745 9.39 28.028 14.117 47.638 34.436 67.899 54.924 9.79 9.815 19.557 19.138 30.074 27.243 35.566 27.586 81.058 32.525 139.434 33.821 39.991.848 76.328-22.012 113.916-35.063 47.421-16.457 102.124-21.604 151.964-13.015 34.1 5.85 55.21 30.837 90.89 36.123 19.3 2.774 38.31-.654 56.87-3.568 41.58-6.624 66.52 10.494 104.89 4.017 9.76-1.626 18.92-5.594 28.46-8.394 9.85-3.013 26.55-4.165 27.4.236"/><path d="M-11.47 187.464c30.269 20.921 70.88 31.902 114.288 33.483 30.501 1.18 63.033-2.566 91.98-10.786 25.923-7.391 49.935-17.853 70.915-31.236 37.261-23.789 68.346-48.778 109.408-66.919 14.053-6.262 29.598-11.604 46.474-16.02 55.089-14.34 118.636-16.238 164.679 4.362 29.434 13.165 50.155 33.138 70.899 53.604 9.785 9.717 19.708 18.934 30.078 27.342 34.776 27.917 80.144 37.203 137.265 39.246 44.05 1.551 83.669-23.529 124.74-37.922 51.694-18.131 111.704-23.42 165.934-14.044 31.18 5.391 52.28 26.63 85.07 32.047 17.69 2.847 35.15.771 52.14-1.282 37.65-4.373 61.81 9.525 96.8 3.201 8.94-1.688 17.33-5.127 26.06-7.891 9.05-2.877 23.47-4.617 25.21-1.835"/><path d="M-8.206 199.055c30.105 20.83 71.306 30.6 114.976 30.887 30.457.195 62.471-4.316 90.909-13.105 25.423-7.764 48.778-18.492 69.78-31.382 37.136-22.994 69.052-47.429 109.292-65.928 13.888-6.352 29.098-11.975 45.478-16.665 54.388-15.59 117.038-19.519 164.455-.56 30.681 12.221 52.675 31.84 74.058 52.178 9.941 9.611 19.864 18.828 30.077 27.342 34.147 28.242 78.925 42.289 134.934 44.679 48.096 1.96 91.016-24.947 135.409-40.675 55.968-19.706 121.128-25.229 180.058-15.179 28.25 4.834 49.35 22.422 79.25 27.971 16.08 2.92 31.99 2.099 47.57 1.095 33.57-2.116 57.25 8.45 88.55 2.393 8.14-1.652 15.73-4.759 23.66-7.487 8.25-2.841 20.4-4.971 23.18-3.913"/><path d="M-4.936 210.745c29.778 20.746 71.89 29.291 115.498 28.199 30.416-.69 61.908-6.066 89.841-15.325 24.919-8.234 47.787-19.039 68.802-31.634 36.851-22.192 69.593-46.171 109.181-64.837 13.718-6.542 28.598-12.347 44.482-17.31 53.682-16.94 115.273-22.892 164.388-5.589 32.091 11.368 55.193 30.542 77.058 50.858 10.093 9.407 19.86 18.73 30.082 27.44 33.356 28.574 77.237 47.694 132.76 50.007 52.298 2.262 98.356-26.465 146.237-43.436 60.087-21.373 130.707-27.045 194.197-16.215 25.48 4.269 46.42 18.313 73.41 23.895 14.32 3 28.67 3.433 42.85 3.48 29.64.035 52.7 7.473 80.46 1.576 7.18-1.608 14.14-4.292 21.27-6.983 7.44-2.805 17.32-5.325 21-5.886"/><path d="M-1.667 222.435c29.613 20.654 72.31 27.891 116.186 25.603 30.376-1.577 61.502-7.922 88.608-17.637 24.414-8.704 46.792-19.684 67.825-31.885 36.725-21.397 70.137-44.815 109.064-63.846 13.392-6.626 28.098-12.719 43.487-17.956 52.98-18.189 113.669-26.271 164.16-10.609 33.337 10.423 57.711 29.244 80.219 49.531 10.245 9.202 20.017 18.624 30.087 27.539 32.57 29.004 75.152 54.989 130.589 55.432 56.728.482 105.703-27.883 157.063-46.295 64.359-22.948 140.139-28.756 208.319-17.35 22.56 3.81 43.49 14.106 67.59 19.819 12.71 3.073 25.51 4.761 38.28 5.759 25.55 2.096 47.98 6.503 72.21.767 6.37-1.572 12.55-3.924 18.88-6.48 6.47-2.761 14.24-5.678 18.8-7.957"/><path d="M1.598 234.026c49.74 34.637 139.176 28.11 204.249 3.058 65.074-25.052 115.642-64.44 175.638-94.885 59.996-30.444 139.553-52.306 206.423-34.231 50.401 13.693 81.368 46.421 113.308 75.75 31.94 29.329 73.235 58.923 128.258 60.865 60.671 2.178 113.049-29.302 167.891-49.056 68.475-24.614 149.565-30.565 222.445-18.385 60.55 10.076 133.01 51.869 192.54 7.733"/><path d="M3.844 240.928c55.618 36.343 152.113 29.2 221.876.976 62.167-25.216 111.351-63.161 169.958-92.26 60.34-29.967 139.405-48.452 204.721-29.123 49.651 14.911 81.542 46.709 115.88 72.082 34.008 25.19 74.267 49.702 127.57 49.255 58.457-.483 109.731-31.42 164.141-50.069 66.94-22.966 145.04-27.301 215.35-15.103 58.94 10.247 137.09 53.262 192.51 7.143"/><path d="M6.09 247.83c61.5 38.148 165.212 30.283 239.342-1.099 59.429-25.191 106.894-61.972 164.112-89.726 60.849-29.398 139.414-44.704 203.02-24.014 48.892 15.932 81.386 46.814 118.613 68.406 36.07 20.953 75.303 40.579 126.882 37.646 56.076-3.237 106.417-33.44 160.391-50.984 65.25-21.311 140.52-23.939 208.41-11.731 57.18 10.426 141.03 54.663 192.49 6.454"/><path d="M8.333 254.634c67.376 39.854 178.318 31.562 256.963-3.281 56.696-25.066 102.598-60.79 158.432-87.099 61.193-28.921 139.427-40.858 201.319-18.906 48.141 17.15 81.068 46.927 121.184 64.737 37.812 16.731 76.339 31.457 126.194 26.037 53.705-5.793 103.104-35.46 156.645-51.998 63.71-19.663 135.99-20.675 201.47-8.357 55.58 10.499 144.96 56.16 192.46 5.863"/><path d="M10.419 261.543c73.253 41.561 191.425 32.842 274.428-5.356 54.124-24.949 98.306-59.51 152.752-84.474 61.702-28.351 139.28-37.003 199.457-13.79 47.386 18.269 80.434 47.153 123.917 61.062 39.397 12.614 77.374 22.334 125.506 14.427 51.489-8.454 99.785-37.578 152.891-53.011 62.01-18.007 131.31-17.405 194.38-5.076 53.96 10.671 148.89 57.561 192.42 5.174"/><path d="M12.665 268.445c79.13 43.267 204.702 34.311 292.054-7.438 51.561-24.636 94.015-58.23 146.907-81.94 62.05-27.776 139.298-33.058 197.755-8.682 46.637 19.487 79.64 47.387 126.49 57.394 40.665 8.611 78.41 13.211 124.813 2.719 49.118-11.01 96.472-39.598 149.306-53.933 60.31-16.352 126.79-14.043 187.44-1.703 52.37 10.842 152.82 58.961 192.4 4.583"/><path d="M14.912 275.348c85.011 45.071 217.978 35.779 309.519-9.514 49.158-24.33 89.724-56.95 141.226-79.314 62.56-27.207 139.151-29.205 196.055-3.574 45.886 20.705 78.536 47.93 129.218 53.62 41.777 4.713 79.45 4.186 124.125-8.891 46.746-13.565 92.995-41.709 145.555-54.946 58.61-14.795 122.26-10.878 180.34 1.579 50.76 10.915 156.75 60.361 192.36 3.894"/><path d="M17.154 282.152c90.888 46.777 231.585 37.43 326.985-11.59 46.76-23.924 85.592-55.677 135.545-76.689 63.073-26.539 139.009-25.251 194.354 1.535 45.136 21.923 77.602 48.663 131.79 49.952 42.902 1.111 80.49-4.838 123.436-20.5 44.376-16.122 89.676-43.827 141.806-55.96 56.91-13.238 117.74-7.615 173.4 4.952 49.16 11.086 160.85 61.852 192.34 3.303"/><path d="M19.4 289.054c96.766 48.484 245.193 39.082 344.607-13.771 44.362-23.519 81.301-54.397 129.7-74.154 63.582-25.971 138.866-21.299 192.657 6.742 44.385 23.141 76.531 46.344 134.523 46.276 43.978-.024 81.53-13.862 122.748-32.11 42.165-18.685 86.355-46.044 138.055-56.974 55.05-11.673 113.06-4.244 166.31 8.333 47.55 11.258 164.77 63.252 192.3 2.614"/><path d="M21.486 295.963c102.642 50.19 258.97 40.923 362.072-15.845 41.964-23.115 77.175-53.027 124.02-71.529 64.257-25.311 138.879-17.453 191.112 11.744 43.474 24.366 75.919 50.614 137.256 42.601 45.483-5.913 82.57-22.887 121.899-43.712 39.959-21.15 82.875-48.155 134.305-57.889 53.35-10.117 108.54-.883 159.37 11.607 45.95 11.429 168.7 64.652 192.28 2.024"/><path d="M23.728 302.767c108.519 51.896 273.072 42.847 379.699-17.928 39.726-22.718 72.887-51.648 118.339-68.904 64.77-24.643 138.419-13.387 189.254 16.959 42.568 25.689 75.325 51.726 139.828 38.932 46.939-9.332 83.776-31.82 121.211-55.321 37.751-23.614 79.551-50.372 130.551-58.902 51.64-8.659 103.86 2.387 152.44 14.98 44.18 11.608 172.63 66.052 192.25 1.433"/><path d="M25.975 309.669c114.4 53.701 287.345 44.962 397.163-20.003 37.655-22.229 68.757-50.376 112.494-66.37 65.288-23.878 138.433-9.54 187.553 22.067 41.814 26.809 75.053 52.824 142.561 35.257 48.716-12.767 84.977-40.851 120.523-66.931 35.551-26.079 76.071-52.581 126.801-59.915 49.94-7.2 99.33 5.651 145.33 18.262 42.58 11.68 176.57 67.55 192.23.743"/><path d="M4.472 300.879c66.148 30.538 154.136 41.835 235.327 31.144 61.815-8.133 121.418-25.933 169.978-49.248 11.664-5.66 22.672-11.585 33.684-17.412 25.164-13.474 48.877-26.981 78.627-35.237 8.909-2.476 17.845-4.361 27.134-5.572 56.527-7.499 116.971 7.415 161.589 32.124 11.566 6.38 22.642 12.586 33.842 17.996 31.462 15.244 63.763 24.136 113.256 10.741 33.894-9.233 62.157-25.412 88.576-43.185 11.879-8.037 23.262-16.347 34.649-24.559 36.506-26.221 77.166-53.125 127.176-62.399 13.73-2.596 27.54-3.618 41.23-3.746 22.55-.136 44.9 2.5 67.15 6.52 12.35 2.301 24.72 5.192 36.62 8.302 18.26 4.794 49.59 17.084 81.41 25.899 48.77 13.373 100.93 19.587 114.01-18.593"/><path d="M-16.875 291.983c66.626 30.418 158.04 42.644 239.316 30.273 63.038-9.57 123.758-27.618 173.804-46.562 11.879-4.485 23.266-9.145 34.341-13.594 25.477-10.134 48.547-20.06 77.623-25.425a234.814 234.814 0 0126.432-3.271c55.594-3.215 116.382 12.177 163.465 34.406 12.183 5.761 24.031 11.241 35.843 15.933 33.136 13.096 66.799 20.052 115.466 6.201 34.198-9.642 63.261-25.956 90.318-43.856 12.2-8.052 23.9-16.475 35.609-24.701 37.298-26.455 78.108-53.661 127.378-64.973 13.55-3.082 27-4.876 40.5-5.686 22.32-1.507 44.44-.44 66.81 2.491 12.8 1.589 25.32 4.178 37.54 7.273 19.56 4.932 50.59 17.828 81.63 27.27 48.02 14.591 100.27 22.775 117.15-13.408"/><path d="M-38.378 283.193c67.264 30.29 161.939 43.354 243.469 29.492 64.261-11.007 125.937-29.295 177.636-43.776 12.089-3.41 23.86-6.706 35.163-9.686 25.629-6.786 48.216-13.139 76.457-15.605 8.347-.675 16.867-1.062 25.576-.865 54.66 1.07 115.948 16.834 165.34 36.689 12.804 5.239 25.58 9.888 38.004 13.862 34.65 10.955 69.671 15.876 117.842 1.753 34.502-10.051 64.203-26.493 91.903-44.422 12.522-8.066 24.704-16.511 36.73-24.851 38.098-26.589 79.058-54.098 127.748-67.554 13.2-3.658 26.63-6.043 39.76-7.725 22.1-2.779 43.99-3.378 66.62-1.643 13.09.984 25.92 3.164 38.46 6.245 20.85 5.071 51.76 18.663 81.85 28.641 47.27 15.71 99.45 25.968 120.13-8.216"/><path d="M-59.724 274.297c67.898 30.064 166.002 44.157 247.617 28.613 65.485-12.443 127.951-31.063 181.464-41.089a726.045 726.045 0 0135.98-5.875c25.619-3.432 47.886-6.219 75.457-5.695 8.061.128 16.456.536 24.874 1.436 53.732 5.453 115.516 21.49 167.221 39.07 13.58 4.612 26.969 8.542 40.165 11.79 36.169 8.914 72.547 11.8 120.218-2.695 34.801-10.557 65.145-27.028 93.644-45.093 12.839-8.179 25.343-16.639 37.686-25.091 38.898-26.725 80.158-54.642 128.118-70.038 13.01-4.241 26.09-7.202 39.03-9.664 21.72-4.143 43.53-6.317 66.27-5.771 13.38.281 26.52 2.249 39.38 5.216 22.15 5.21 52.76 19.407 82.08 30.111 46.52 16.928 98.79 29.156 123.26-3.129"/><path d="M-81.231 265.408c68.376 29.944 169.9 44.868 251.605 27.742 66.708-13.88 129.804-32.825 185.456-38.311 12.508-1.258 24.561-1.904 36.802-1.966 25.441-.267 47.555.702 74.452 4.117 7.78 1.028 15.885 2.14 24.174 3.737 52.798 9.737 114.922 26.153 168.935 41.359 14.197 3.992 28.358 7.197 42.327 9.72 37.682 6.773 75.418 7.625 122.593-7.144 35.105-10.966 66.087-27.565 95.386-45.764 13.161-8.194 25.986-16.668 38.646-25.233 39.86-26.867 81.105-55.08 128.325-72.613 12.67-4.718 25.55-8.46 38.29-11.702 21.5-5.514 43.07-9.256 65.92-9.898 13.84-.431 27.28 1.228 40.3 4.188 23.45 5.348 53.92 20.242 82.3 31.482 45.77 18.047 98.13 32.342 126.24 2.062"/><path d="M-102.573 256.611c69.014 29.816 173.799 45.578 255.758 26.961 67.927-15.415 131.809-34.79 189.283-35.624 12.718-.182 24.99.444 37.459 1.851 25.423 2.891 47.22 7.524 73.287 13.937a692.126 692.126 0 0123.472 6.037c51.875 14.219 114.49 30.81 170.812 43.643 14.974 3.364 29.746 5.851 44.488 7.648 39.2 4.731 78.289 3.45 124.803-11.684 35.243-11.465 67.03-28.1 96.972-46.329 13.482-8.208 26.624-16.795 39.606-25.376 40.659-27.001 82.213-55.622 128.683-75.193 12.49-5.302 25.02-9.718 37.56-13.741 21.11-6.877 42.62-12.293 65.57-14.025 14.13-1.037 27.88.214 41.23 3.159 24.89 5.48 54.92 21.084 82.52 32.853 45.02 19.265 97.31 35.536 129.36 7.149"/><path d="M-124.081 247.722c69.649 29.59 177.694 46.191 259.907 26.082 68.986-16.943 133.814-36.755 193.115-32.838 12.928.893 25.414 2.694 38.28 5.76 25.402 5.95 46.887 14.346 72.284 23.749 7.373 2.723 14.906 5.439 22.771 8.338 50.946 18.601 114.056 35.466 172.687 45.925a424.295 424.295 0 0046.488 5.584c40.719 2.689 81.161-.725 127.179-16.132 35.543-11.972 68.133-28.644 98.714-47 13.803-8.223 27.267-16.825 40.565-25.518 41.459-27.137 83.161-56.06 128.901-77.669 12.3-5.788 24.47-10.878 36.66-15.673 20.89-8.15 42.15-15.331 65.22-18.154 14.42-1.838 28.48-.799 42.15 2.132 26.19 5.617 55.92 21.827 82.75 34.322 44.26 20.483 96.64 38.723 132.34 12.341"/><path d="M-145.423 238.925c70.288 29.462 181.753 46.894 263.895 25.21 70.205-18.478 135.815-38.819 197.103-30.158 13.133 1.87 26.004 5.035 39.097 9.57 25.536 8.903 46.552 21.168 71.284 33.659 7.087 3.526 14.496 7.037 22.07 10.639 49.861 23.09 113.623 40.122 174.563 48.207 16.206 2.125 32.528 3.259 48.649 3.513 42.237.648 84.032-4.9 129.555-20.58 35.846-12.381 69.075-29.18 100.459-47.573 14.121-8.335 27.906-16.952 41.683-25.766 42.258-27.271 84.265-56.505 129.265-80.25 11.95-6.364 24.09-12.143 35.92-17.712 20.67-9.521 41.54-18.36 64.88-22.28 14.71-2.542 29.08-1.715 43.06 1.103 27.49 5.756 57.09 22.662 82.98 35.693 43.52 21.799 95.82 41.818 135.31 17.435"/><path d="M-166.93 230.036c70.765 29.342 185.647 47.507 268.048 24.43 71.424-20.013 137.976-40.89 200.934-27.372 13.339 2.847 26.589 7.277 39.915 13.38 25.835 11.948 46.222 28.089 70.119 43.478a397.718 397.718 0 0021.369 12.94c48.771 27.48 113.19 44.778 176.438 50.49 16.983 1.498 33.922 2.011 50.811 1.442 43.76-1.296 86.903-9.076 131.926-25.128 36.145-12.887 70.017-29.716 102.04-48.236 14.442-8.35 28.71-16.989 42.642-25.908 43.058-27.407 85.378-56.95 129.468-82.825 11.77-6.848 23.56-13.303 35.19-19.651 20.29-10.885 41.08-21.398 64.53-26.409 15.16-3.253 29.68-2.728 43.99.075 28.77 5.797 58.09 23.505 83.19 37.065 42.61 23.024 95.16 45.005 138.45 22.619"/><path d="M-188.272 221.238c71.404 29.215 189.376 48.028 272.196 23.552 72.478-21.64 140.133-43.06 204.766-24.587 13.71 3.915 27.175 9.519 40.738 17.289 26.134 14.992 46.047 34.903 69.113 53.29 6.681 5.221 13.518 10.337 20.668 15.24 47.687 31.969 112.753 49.337 178.154 52.78 17.599.878 35.31.666 52.972-.629 45.283-3.24 89.774-13.25 134.302-29.576 36.283-13.387 70.959-30.252 103.781-48.907 14.764-8.365 29.349-17.117 43.603-26.051 44.018-27.548 86.479-57.394 129.839-85.308 11.43-7.326 23.02-14.56 34.46-21.689 19.89-12.347 40.61-24.435 64.18-30.536 15.44-3.957 30.43-3.749 44.9-.953 30.07 5.935 59.1 24.347 83.42 38.533 41.86 24.243 94.5 48.193 141.42 27.714"/><path d="M-209.779 212.35c72.038 28.988 193.274 48.739 276.184 22.68 89.265-28.025 171.357-54.343 250.148-.801 33.914 23.123 56.177 55.752 88.076 80.643 59.289 46.24 149.256 62.083 235.168 52.461 85.911-9.622 168.352-42.467 242.044-83.497 73.853-41.038 140.399-90.326 208.489-137.711 19.68-13.62 40-27.465 63.99-34.671 49.27-14.765 94.83 16.412 129.32 38.029 40.95 25.565 93.68 51.386 144.55 32.898"/></g><defs><clipPath id="clip0"><path fill="#fff" transform="rotate(-2.599 1554.12 4808.53)" d="M0 0h1661.94v332.012H0z"/></clipPath></defs></svg>